<?xml version="1.0" standalone="no"?>
<!DOCTYPE svg PUBLIC "-//W3C//DTD SVG 1.1//EN" "http://www.w3.org/Graphics/SVG/1.1/DTD/svg11.dtd" >
<svg>
<metadata>
Created by FontForge 20090914 at Thu Feb 23 19:34:36 2012
 By ffonts
</metadata>
<defs>
<font id="Revue" horiz-adv-x="350" >
  <font-face 
    font-family="Revue"
    font-weight="500"
    font-stretch="normal"
    units-per-em="1000"
    panose-1="0 0 0 0 0 0 0 0 0 0"
    ascent="800"
    descent="-200"
    x-height="604"
    cap-height="817"
    bbox="-44 -236 1136 1067"
    underline-thickness="50"
    underline-position="-55"
    unicode-range="U+0020-U+F002"
  />
<missing-glyph 
 />
    <glyph glyph-name=".notdef" 
 />
    <glyph glyph-name="glyph1" horiz-adv-x="0" 
 />
    <glyph glyph-name="glyph2" 
 />
    <glyph glyph-name="space" unicode=" " 
 />
    <glyph glyph-name="space" unicode="&#xa0;" 
 />
    <glyph glyph-name="exclam" unicode="!" horiz-adv-x="400" 
d="M305 184v-184h-211v184h211v0zM305 817v-583h-211v583h211v0z" />
    <glyph glyph-name="quotedbl" unicode="&#x22;" horiz-adv-x="500" 
 />
    <glyph glyph-name="numbersign" unicode="#" horiz-adv-x="500" 
 />
    <glyph glyph-name="dollar" unicode="$" horiz-adv-x="600" 
d="M316 549l149 -165q38 -43 69.5 -89t31.5 -107q0 -15 -2.5 -31.5t-8.5 -33.5q-14 -42 -53.5 -77.5t-116.5 -43.5v-100h-178v98h-110l-50 184h194q4 -1 9 -1h11h7h7q17 1 31 6.5t14 20.5q0 14 -8 25.5t-18 21.5q-2 3 -4.5 5.5l-4.5 4.5l-145 165q-37 42 -68.5 88t-31.5 107
q0 15 2.5 31.5t8.5 33.5q14 40 50 74.5t106 45.5v88h178v-83h105l50 -184h-180q-4 -1 -9 -1h-11h-7h-7q-17 -1 -31 -6.5t-14 -20.5q0 -14 8 -25.5t18 -21.5q2 -3 4.5 -5.5l4.5 -4.5v1z" />
    <glyph glyph-name="percent" unicode="%" horiz-adv-x="1160" 
d="M909 -18q-90 0 -143.5 68.5t-72.5 150.5q-5 24 -8 47.5t-3 45.5q0 47 16 89t57 70q22 15 47.5 22t51.5 10q14 1 28 1.5t27 0.5t27 -0.5t28 -1.5q26 -3 51.5 -10t47.5 -22q41 -28 57 -70t16 -89q0 -22 -3 -45.5t-8 -47.5q-19 -82 -72.5 -150.5t-143.5 -68.5v0zM909 108
q26 -1 43 29t26 66q6 26 9 49.5t3 36.5q0 41 -20 61.5t-61 20.5t-61 -20.5t-20 -61.5q0 -13 3 -36.5t9 -49.5q9 -36 26 -66t43 -30v1zM768 817l-277 -817h-116l277 817h116v0zM251 329q-90 -1 -143.5 68t-72.5 151q-5 24 -8 47.5t-3 45.5q0 47 16 89t57 70q22 15 47.5 22
t51.5 10q14 1 28 1.5t27 0.5t27 -0.5t28 -1.5q26 -3 51.5 -10t47.5 -22q41 -28 57 -70t16 -89q0 -22 -3 -45.5t-8 -47.5q-19 -82 -72.5 -151t-143.5 -69v1zM251 455q26 -1 43 29t26 66q6 26 9 49.5t3 36.5q0 41 -20 61.5t-61 20.5t-61 -20.5t-20 -61.5q0 -13 3 -36.5
t9 -49.5q9 -36 26 -66t43 -30v1z" />
    <glyph glyph-name="ampersand" unicode="&#x26;" horiz-adv-x="800" 
d="M751 533v-184h-47v-349h-388q-149 0 -207.5 52t-67.5 114q-1 9 -1.5 17t-0.5 16q0 78 41.5 139.5t102.5 104.5q-43 38 -75.5 81t-32.5 103q0 6 0.5 11.5t0.5 11.5q6 62 56.5 114t181.5 52l272 1l50 -184h-220q-53 -1 -76.5 -5.5t-23.5 -33.5q0 -6 1.5 -12t4.5 -12
q8 -15 22.5 -29.5t29.5 -27.5l25 -18.5l20 -14.5l67 -50l-40.5 -22.5t-48.5 -30.5q-36 -24 -67.5 -54.5t-43.5 -61.5q-3 -7 -4.5 -14.5t-1.5 -14.5q0 -28 20 -37.5t44 -10.5q8 -1 15 -1h14l123 1v349h255v0z" />
    <glyph glyph-name="quotesingle" unicode="'" horiz-adv-x="500" 
 />
    <glyph glyph-name="parenleft" unicode="(" horiz-adv-x="520" 
d="M475 -149l-181 -87q-81 128 -122 264t-41 284q0 120 28 227t81 211l22.5 42t24.5 42l183 -86q-54 -104 -89 -215.5t-35 -226.5v-13.5t1 -12.5q4 -111 40 -220t88 -209v0z" />
    <glyph glyph-name="parenright" unicode=")" horiz-adv-x="520" 
d="M226 -236l-181 87q52 100 88 209t40 220q1 6 1 12.5v13.5q0 115 -35 226.5t-89 214.5l183 88l24.5 -43l22.5 -42q53 -104 81 -211t28 -227q0 -148 -41 -284t-122 -264v0z" />
    <glyph glyph-name="asterisk" unicode="*" horiz-adv-x="480" 
d="M303 817l-14 -132l115 57l35 -118l-114 -25l79 -85l-104 -76l-61 98l-59 -98l-104 76l77 85l-113 25l36 118l114 -57l-15 132h128v0z" />
    <glyph glyph-name="plus" unicode="+" horiz-adv-x="500" 
 />
    <glyph glyph-name="comma" unicode="," horiz-adv-x="300" 
d="M261 182l-82 -277h-187l82 277h187v0z" />
    <glyph glyph-name="hyphen" unicode="-" horiz-adv-x="320" 
d="M321 429v-158h-322v158h322v0z" />
    <glyph glyph-name="period" unicode="." horiz-adv-x="300" 
d="M240 184v-184h-180v184h180v0z" />
    <glyph glyph-name="slash" unicode="/" horiz-adv-x="500" 
d="M507 817l-349 -1025h-166l349 1025h166v0z" />
    <glyph glyph-name="zero" unicode="0" horiz-adv-x="780" 
d="M390 -18q-137 0 -219.5 108t-115.5 237q-12 47 -18 93t-6 87v9.5v9.5q4 116 71.5 212t287.5 96t287.5 -96t71.5 -212v-9.5v-9.5q0 -41 -6 -87t-18 -93q-33 -129 -115.5 -237t-219.5 -108v0zM390 184q43 -1 73.5 56t46.5 126q8 34 12 66.5t4 58.5q0 72 -30.5 112
t-105.5 40t-105.5 -40t-30.5 -112q0 -26 4 -58.5t12 -66.5q16 -69 46.5 -126t73.5 -57v1z" />
    <glyph glyph-name="one" unicode="1" horiz-adv-x="420" 
d="M40 817h298v-817h-214v633h-134l50 184v0z" />
    <glyph glyph-name="two" unicode="2" horiz-adv-x="580" 
d="M72 817h256q91 -1 134 -37.5t55 -80.5q3 -12 4.5 -23.5t1.5 -22.5q0 -38 -11 -70t-26 -64l-10.5 -20.5l-10.5 -20.5q-1 -2 -1.5 -3.5t-1.5 -2.5l-148 -288h231l-50 -184h-515l277 538q2 3 4.5 8t5.5 10q2 3 3.5 6.5t2.5 7.5q4 7 6 14.5t2 13.5q0 20 -15 26.5t-32 7.5h-10
h-10h-3h-3h-2h-1h-2h-2l-179 1l50 184v0z" />
    <glyph glyph-name="three" unicode="3" horiz-adv-x="600" 
d="M67 817h235q131 -1 181.5 -53t56.5 -114q0 -6 0.5 -11.5t0.5 -11.5q0 -55 -27 -96t-68 -79l-8.5 -8.5t-9.5 -8.5q56 -48 97 -101.5t41 -132.5q0 -14 -2 -30t-7 -32q-16 -52 -67 -95.5t-155 -43.5h-281l-50 184h209q3 -1 6 -1h6h16.5h17.5q24 2 44 11.5t20 36.5
q0 17 -11 35t-28 37q-14 16 -32 31.5l-36 30.5l-49.5 36.5l-38.5 27.5l67 52q8 5 20 13.5l25 18.5q15 13 29.5 27.5t22.5 29.5q3 6 4.5 12t1.5 12q0 29 -23.5 33.5t-76.5 4.5l-181 1l50 184v0z" />
    <glyph glyph-name="four" unicode="4" horiz-adv-x="640" 
d="M368 362v155h178v-155h81v-184h-81v-178h-178v178h-352v163l205 476h226l-198 -455h119v0z" />
    <glyph glyph-name="five" unicode="5" horiz-adv-x="600" 
d="M195 378h-142l24 439h400l50 -184h-257l-4 -83h63q128 -1 176.5 -62t53.5 -134q1 -6 1 -12.5v-12.5q0 -24 -7 -66t-33 -88q-39 -66 -134 -120.5t-285 -54.5l-50 184q139 -1 201.5 28.5t77.5 65.5q4 8 5.5 15.5t1.5 15.5q0 41 -28 53.5t-62 14.5h-19.5h-17.5h-8h-7v1z" />
    <glyph glyph-name="six" unicode="6" horiz-adv-x="660" 
d="M269 817h248q-3 -5 -32 -46l-63 -93l-7.5 -11.5l-7.5 -11.5l-36.5 -58.5t-28.5 -51.5q123 -1 213 -71t90 -201v-8v-9q-5 -103 -75.5 -188.5t-242.5 -85.5q-154 0 -228.5 77t-74.5 203q0 17 1.5 34t3.5 34q16 106 69.5 209.5t114.5 195.5l28 41.5l28 39.5v1zM293 371h-31
q-8 -18 -14 -37t-8 -39q0 -5 -0.5 -9.5t-0.5 -9.5q0 -43 25 -75t71 -32q43 0 69 26.5t26 69.5q0 55 -40 79t-89 26h-4h-4v1z" />
    <glyph glyph-name="seven" unicode="7" horiz-adv-x="540" 
d="M56 817h501l-250 -817h-223l195 633h-273l50 184v0z" />
    <glyph glyph-name="eight" unicode="8" horiz-adv-x="680" 
d="M180 433q-7 5 -13.5 10.5t-13.5 10.5q-41 36 -67.5 76t-26.5 101q0 16 2 34.5t8 37.5q15 49 72.5 90t198.5 41t198.5 -41t72.5 -90q6 -19 8 -37.5t2 -34.5q0 -61 -26.5 -101t-67.5 -76q-7 -5 -13.5 -10.5l-13.5 -11.5q57 -45 99 -99t42 -132q0 -16 -1.5 -32.5t-5.5 -33.5
q-14 -58 -74.5 -105.5t-219.5 -47.5t-219.5 47.5t-74.5 105.5q-4 17 -5.5 33.5t-1.5 32.5q0 78 42 132t99 99v1zM340 323q-7 -6 -15.5 -12.5t-17.5 -14.5q-20 -17 -36.5 -38t-16.5 -43q0 -21 16.5 -31.5t36.5 -14.5q9 -2 17.5 -2.5t15.5 -0.5t15.5 0.5t17.5 2.5
q20 4 36.5 14.5t16.5 31.5q0 22 -16.5 43t-36.5 38q-9 8 -17.5 14.5l-15.5 11.5v1zM340 537q5 3 11 7.5t12 9.5q14 12 26.5 28t12.5 35q0 21 -15 30t-33 11q-4 1 -8 1h-8h-8t-8 -1q-18 -2 -33 -11t-15 -30q0 -20 14.5 -37t31.5 -30q5 -4 10 -7.5t10 -6.5v1z" />
    <glyph glyph-name="nine" unicode="9" horiz-adv-x="660" 
d="M150 0l-50 184q19 0 39.5 2t40.5 5q45 6 88 22t75 51q-160 26 -246 108t-86 206q0 13 1.5 27t4.5 28q15 75 82.5 138t215.5 63q179 0 254 -85t75 -231q0 -20 -1.5 -40.5t-4.5 -41.5q-23 -165 -138.5 -301.5t-320.5 -135.5h-14t-15 1v0zM416 442q4 12 6.5 25t4.5 27
q1 9 1.5 17.5t0.5 17.5q0 49 -27 80.5t-79 31.5q-37 0 -63 -19t-26 -57q0 -45 36 -71t80 -39q17 -5 34 -8.5t32 -5.5v1z" />
    <glyph glyph-name="colon" unicode=":" horiz-adv-x="300" 
d="M240 184v-184h-180v184h180v0zM240 604v-184h-180v184h180v0z" />
    <glyph glyph-name="semicolon" unicode=";" horiz-adv-x="300" 
d="M261 182l-82 -277h-187l82 277h187v0zM258 604v-184h-180v184h180v0z" />
    <glyph glyph-name="less" unicode="&#x3c;" horiz-adv-x="500" 
 />
    <glyph glyph-name="equal" unicode="=" horiz-adv-x="500" 
 />
    <glyph glyph-name="greater" unicode="&#x3e;" horiz-adv-x="500" 
 />
    <glyph glyph-name="question" unicode="?" horiz-adv-x="640" 
d="M352 184v-184h-211v184h211v0zM96 817h245q125 -1 187 -71t62 -159q0 -75 -37 -133t-82 -100q-45 -43 -82 -71.5t-37 -45.5v-1.5t1 -0.5v-1.5v-0.5l-212 1v59q0 30 24.5 59t58.5 58l14 11.5l14 11.5q41 35 75.5 70.5t34.5 74.5q0 30 -23.5 40.5t-51.5 12.5q-11 1 -21.5 1
h-19.5h-7h-6l-184 1l47 184v0z" />
    <glyph glyph-name="at" unicode="@" horiz-adv-x="500" 
 />
    <glyph glyph-name="A" unicode="A" horiz-adv-x="760" 
d="M692 608v-608h-214v259h-234q1 -70 24 -135.5t58 -123.5l-174 -115q-59 89 -93 193t-34 212q0 12 0.5 24.5t1.5 24.5q7 95 42 185t103 158q86 86 186 110t215 24l105 1l50 -184h-168q-121 -1 -179 -38.5t-85 -82.5q-10 -18 -17.5 -36.5l-13.5 -33.5l213 1v165h214v0z" />
    <glyph glyph-name="B" unicode="B" horiz-adv-x="780" 
d="M467 0h-394v608h214v-424h123q7 -1 14 -1t15 1q24 1 44 10.5t20 37.5q0 7 -1.5 14.5t-4.5 14.5q-12 31 -43.5 61.5t-67.5 54.5q-25 17 -48.5 30.5t-40.5 21.5l67 52q8 5 20 13.5l25 18.5q15 13 29.5 27.5t22.5 29.5q3 6 4.5 12t1.5 12q0 29 -23.5 33.5t-76.5 4.5l-334 1
l50 184h386q131 -1 181.5 -53t56.5 -114q0 -6 0.5 -11.5t0.5 -11.5q0 -60 -32 -103t-76 -81q61 -43 102.5 -104.5t41.5 -139.5q0 -8 -0.5 -16t-1.5 -17q-9 -62 -67.5 -114t-207.5 -52v0z" />
    <glyph glyph-name="C" unicode="C" horiz-adv-x="580" 
d="M581 184l-50 -184h-37q-207 0 -337.5 149.5t-130.5 346.5q0 124 72 222t255 98l167 1l50 -184h-167q-12 -1 -31.5 -2t-40.5 -8q-32 -11 -59 -43t-27 -103q0 -118 82 -206.5t230 -88.5h6t6 1h6h6v1z" />
    <glyph glyph-name="D" unicode="D" horiz-adv-x="780" 
d="M247 0h-174v608h214v-424q110 4 180.5 94t70.5 199q0 71 -27 103t-59 43q-21 7 -40.5 8t-31.5 1l-347 1l50 184h347q183 -1 255 -99t72 -222q0 -231 -153 -363.5t-357 -132.5v0z" />
    <glyph glyph-name="E" unicode="E" horiz-adv-x="640" 
d="M563 817l50 -184h-329v-121h299l-50 -184h-249v-144h351l-50 -184h-515v817h493v0z" />
    <glyph glyph-name="F" unicode="F" horiz-adv-x="600" 
d="M554 817l50 -184h-320v-131h289l-50 -184h-239v-202v-15.5v-14.5q1 -22 3.5 -44t9.5 -42l-194 -124q-21 42 -27 87.5t-6 91.5v762h484v0z" />
    <glyph glyph-name="G" unicode="G" horiz-adv-x="760" 
d="M496 184v191h-81v184h295v-559h-174q-204 0 -357 132.5t-153 363.5q0 124 72 222t255 98l297 1l50 -184h-297q-12 -1 -31.5 -2t-40.5 -8q-32 -11 -59 -43t-27 -103q0 -109 70.5 -199t180.5 -95v1z" />
    <glyph glyph-name="H" unicode="H" horiz-adv-x="800" 
d="M726 817v-817h-214v375h-225v-259v-15.5v-14.5q1 -22 3.5 -44t9.5 -42l-194 -124q-21 42 -27 87.5t-6 91.5v762h214v-258h225v258h214v0z" />
    <glyph glyph-name="I" unicode="I" horiz-adv-x="360" 
d="M287 817v-817h-214v817h214v0z" />
    <glyph glyph-name="J" unicode="J" horiz-adv-x="460" 
d="M58 817h328v-627q0 -161 -52.5 -241.5t-188.5 -145.5q-15 -8 -31 -15l-33 -14l-86 167q24 11 44.5 21.5t36.5 21.5q59 36 77.5 81.5t18.5 132.5v435h-164l50 184v0z" />
    <glyph glyph-name="K" unicode="K" horiz-adv-x="720" 
d="M284 817v-817h-214v817h214v0zM720 817l-195 -360l234 -457h-255l-218 449l193 368h241v0z" />
    <glyph glyph-name="L" unicode="L" horiz-adv-x="540" 
d="M284 817v-633h281l-50 -184h-445v817h214v0z" />
    <glyph glyph-name="M" unicode="M" horiz-adv-x="900" 
d="M829 817v-817h-214v494h-2l-165 -220l-161 220h-2v-494h-214v817h203l174 -240l178 240h203v0z" />
    <glyph glyph-name="N" unicode="N" horiz-adv-x="800" 
d="M728 817v-817h-214v241l-226 275h-2v-516h-214v817h204l238 -278v278h214v0z" />
    <glyph glyph-name="O" unicode="O" horiz-adv-x="800" 
d="M400 -18q-145 0 -232.5 114t-119.5 252q-10 41 -15 82t-5 79q0 133 78.5 229t293.5 96t293.5 -96t78.5 -229q0 -38 -5 -79t-15 -82q-32 -138 -119.5 -252t-232.5 -114v0zM400 175q52 -1 92.5 80.5t52.5 179.5q2 16 3 32t1 32q0 82 -35 113t-114 31t-114 -31t-35 -113
q0 -16 1 -32t3 -32q12 -98 52.5 -179.5t92.5 -81.5v1z" />
    <glyph glyph-name="P" unicode="P" horiz-adv-x="700" 
d="M287 181v-181h-214v608h214v-216q15 7 33.5 17.5t37.5 24.5q40 27 73 63t33 73q0 36 -23.5 47.5t-51.5 13.5q-7 0 -14 0.5t-14 0.5h-0.5h-1.5l-326 1l50 184h332q150 -1 208.5 -70.5t59.5 -152.5v-1.5v-1.5q0 -51 -22 -107t-75 -113q-47 -49 -120 -97.5t-179 -93.5v1z
" />
    <glyph glyph-name="Q" unicode="Q" horiz-adv-x="800" 
d="M772 184l-50 -184h-323q-169 0 -270.5 152t-101.5 357q0 133 78.5 229t293.5 96t291.5 -96t76.5 -229v-12.5t-1 -12.5q-3 -81 -30.5 -159t-75.5 -142l112 1v0zM397 191q46 -1 77.5 51t49.5 115q12 42 18 80.5t6 61.5q0 82 -35 113t-114 31q-82 0 -117.5 -31t-35.5 -113
q0 -23 6 -61.5t18 -80.5q18 -63 49.5 -115t77.5 -52v1z" />
    <glyph glyph-name="R" unicode="R" horiz-adv-x="760" 
d="M83 817h394q120 -1 174.5 -51t68.5 -111q2 -12 3.5 -25t1.5 -25q0 -89 -52 -151t-123 -107q47 -94 107.5 -181t129.5 -166l-179 -124q-99 112 -176 241.5t-138 266.5q15 12 37 27l45 32q40 30 73.5 65.5t33.5 72.5q0 29 -20.5 39t-44.5 11q-8 1 -15.5 1h-14.5h-4h-4
l-347 1l50 184v0zM287 608v-608h-214v608h214v0z" />
    <glyph glyph-name="S" unicode="S" horiz-adv-x="560" 
d="M476 817l50 -184h-180q-4 -1 -9 -1h-11h-7h-7q-17 -1 -31 -6.5t-14 -20.5q0 -14 8 -25.5t18 -21.5q2 -3 4.5 -5.5l4.5 -4.5l149 -164q38 -43 69.5 -89t31.5 -107q0 -15 -2.5 -31.5t-8.5 -34.5q-16 -46 -63.5 -84t-145.5 -38h-249l-50 184h194q4 -1 9 -1h11h7h7
q17 1 31 6.5t14 20.5q0 14 -8 25.5t-18 21.5q-2 3 -4.5 5.5l-4.5 4.5l-145 165q-37 42 -68.5 88t-31.5 107q0 15 2.5 31.5t8.5 34.5q16 46 63.5 84.5t145.5 38.5l230 1v0z" />
    <glyph glyph-name="T" unicode="T" horiz-adv-x="620" 
d="M595 817l50 -184h-228v-633h-214v633h-228l50 184h570v0z" />
    <glyph glyph-name="U" unicode="U" horiz-adv-x="760" 
d="M697 817v-817h-347q-179 0 -251.5 96.5t-72.5 238.5q0 128 42.5 248t99.5 233l231 1l-30.5 -66t-35.5 -80q-21 -48 -40.5 -101.5t-32.5 -108.5q-7 -31 -11 -62t-4 -61q0 -71 27 -103t59 -43q21 -7 40.5 -8t31.5 -1l80 1v633h214v0z" />
    <glyph glyph-name="V" unicode="V" horiz-adv-x="640" 
d="M200 817l119 -540h2l118 540h229l-223 -817h-251l-223 817h229v0z" />
    <glyph glyph-name="W" unicode="W" horiz-adv-x="1040" 
d="M1058 817l-207 -817h-233l-97 476h-3l-97 -476h-233l-207 817h234l95 -517h3l98 517h217l108 -514h3l85 514h234v0z" />
    <glyph glyph-name="X" unicode="X" horiz-adv-x="640" 
d="M320 261l-113 -261h-243l214 428l-196 389h243l95 -225l95 225h243l-196 -389l214 -428h-243l-113 261v0z" />
    <glyph glyph-name="Y" unicode="Y" horiz-adv-x="620" 
d="M657 817l-240 -492v-209v-15.5v-14.5q1 -22 3.5 -44t9.5 -42l-194 -124q-21 42 -27 87.5t-6 91.5v270l-240 492h243l104 -244l104 244h243v0z" />
    <glyph glyph-name="Z" unicode="Z" horiz-adv-x="580" 
d="M71 817h514l-282 -633h272l-50 -184h-539l282 633h-247l50 184v0z" />
    <glyph glyph-name="bracketleft" unicode="[" horiz-adv-x="400" 
d="M389 -183h-365v1000h365l-48 -158h-103v-684h103l48 -158v0z" />
    <glyph glyph-name="backslash" unicode="\" horiz-adv-x="500" 
 />
    <glyph glyph-name="bracketright" unicode="]" horiz-adv-x="400" 
d="M376 -183h-365l48 158h103v684h-103l-48 158h365v-1000v0z" />
    <glyph glyph-name="asciicircum" unicode="^" horiz-adv-x="500" 
 />
    <glyph glyph-name="underscore" unicode="_" horiz-adv-x="500" 
d="M500 -25v-158h-500v158h500v0z" />
    <glyph glyph-name="grave" unicode="`" horiz-adv-x="380" 
d="M82 817h148l67 -160h-140l-75 160v0z" />
    <glyph glyph-name="a" unicode="a" horiz-adv-x="620" 
d="M564 604v-604h-193q-144 0 -247.5 110t-103.5 261q0 89 53 160.5t198 71.5l293 1v0zM372 163v278h-62q-8 -1 -18.5 -1.5t-20.5 -2.5q-21 -5 -38 -22t-17 -58v-4.5v-5.5q3 -65 45.5 -120.5t110.5 -64.5v1z" />
    <glyph glyph-name="b" unicode="b" horiz-adv-x="620" 
d="M248 817v-213h100q145 -1 198.5 -72.5t53.5 -160.5q0 -151 -103 -261t-243 -110h-198v817h192v0zM248 441v-278q68 8 110.5 63.5t45.5 120.5v5.5v4.5q0 41 -17 58t-38 22q-10 2 -20.5 2.5t-18.5 0.5l-62 1v0z" />
    <glyph glyph-name="c" unicode="c" horiz-adv-x="460" 
d="M392 604l48 -163h-130q-8 -1 -18.5 -1.5t-20.5 -2.5q-21 -5 -38 -22t-17 -58q0 -8 1 -17t2 -17q12 -61 56.5 -111t106.5 -50l68 1l-48 -163h-31q-144 0 -247.5 110t-103.5 261q0 89 53 160.5t198 71.5l121 1v0z" />
    <glyph glyph-name="d" unicode="d" horiz-adv-x="620" 
d="M378 817h192v-817h-199q-144 0 -247.5 110t-103.5 261q0 89 53 160.5t198 71.5l107 1v213v0zM378 441h-68q-8 -1 -18.5 -1.5t-20.5 -2.5q-21 -5 -38 -22t-17 -58v-4.5v-5.5q3 -65 45.5 -120.5t110.5 -64.5l6 1v278v0z" />
    <glyph glyph-name="e" unicode="e" horiz-adv-x="580" 
d="M535 163l-48 -163h-116q-144 0 -247.5 110t-103.5 261q2 128 65.5 188t211.5 58l40 1q99 -1 146.5 -28t64.5 -59q12 -24 14 -45t2 -32v-2v-2q0 -93 -61 -156.5t-135 -107.5q-6 -3 -11.5 -6.5t-11.5 -6.5q38 -8 64 -9.5t50 -1.5l76 1v0zM368 424q0 16 -12 22t-27 7
q-5 1 -10 1h-10q-45 0 -69 -22.5t-24 -67.5q0 -6 0.5 -12t1.5 -12q1 -12 4 -24t7 -24l27.5 15t33.5 21q23 16 43.5 34.5t29.5 38.5q2 6 3.5 11.5t1.5 10.5v1z" />
    <glyph glyph-name="f" unicode="f" horiz-adv-x="380" 
d="M67 446h-42v158h42q-1 7 -1 15.5v16.5q0 81 41.5 130.5t144.5 49.5l102 1l48 -163h-71q-3 -1 -6 -1h-6q-26 1 -43.5 -4.5t-16.5 -37.5v-3.5v-4.5l113 1v-158h-113v-446h-192v446v0z" />
    <glyph glyph-name="g" unicode="g" horiz-adv-x="620" 
d="M564 604v-599q0 -125 -49 -171.5t-183 -46.5h-213l-49 163h216h7t7 -1h8h8q21 0 38.5 8.5t17.5 42.5q-145 0 -248.5 110t-103.5 261q0 89 53 160.5t198 71.5l293 1v0zM372 441h-62q-8 -1 -18.5 -1.5t-20.5 -2.5q-21 -5 -38 -22t-17 -58v-4.5v-5.5q3 -65 45.5 -120.5
t110.5 -64.5v279v0z" />
    <glyph glyph-name="h" unicode="h" horiz-adv-x="620" 
d="M245 817v-213h106q123 -1 169.5 -57t46.5 -176v-371h-192v344v0.5v1.5q-2 57 -13 75t-71 19l-46 1v-441h-192v817h192v0z" />
    <glyph glyph-name="i" unicode="i" horiz-adv-x="300" 
d="M246 604v-604h-192v604h192v0zM246 817v-163h-192v163h192v0z" />
    <glyph glyph-name="j" unicode="j" horiz-adv-x="320" 
d="M265 604v-476q0 -118 -30 -189.5t-87 -134.5l-13 -14.5l-14 -14.5l-150 108q77 79 89.5 151t12.5 112v1.5v0.5v456h192v0zM265 817v-163h-192v163h192v0z" />
    <glyph glyph-name="k" unicode="k" horiz-adv-x="600" 
d="M248 817v-817h-192v817h192v0zM579 604l-125 -265l152 -339h-212l-145 333l121 271h209v0z" />
    <glyph glyph-name="l" unicode="l" horiz-adv-x="300" 
d="M246 817v-817h-192v817h192v0z" />
    <glyph glyph-name="m" unicode="m" horiz-adv-x="900" 
d="M54 604h575q123 -1 169.5 -57t46.5 -176v-371h-187v344v0.5v1.5q-2 57 -13 75t-71 19l-31 1v-441h-187v441h-115v-441h-187v604v0z" />
    <glyph glyph-name="n" unicode="n" horiz-adv-x="620" 
d="M53 604h298q123 -1 169.5 -57t46.5 -176v-371h-192v344v0.5v1.5q-2 57 -13 75t-71 19l-46 1v-441h-192v604v0z" />
    <glyph glyph-name="o" unicode="o" horiz-adv-x="620" 
d="M268 618h84q102 -1 153 -37.5t71 -80.5q17 -36 20 -68t3 -43v-0.5v-0.5q0 -16 -1 -32t-3 -32q-16 -128 -90 -235t-195 -107t-195 107t-90 235q-2 16 -3 32t-1 32v0.5v0.5q0 11 3 43t20 68q20 44 71 80.5t153 36.5v1zM310 156q7 -1 16 4.5t18 15.5q22 25 40.5 76t18.5 119
q0 44 -24.5 63.5t-68.5 19.5t-68.5 -19.5t-24.5 -63.5q0 -68 18.5 -119t40.5 -76q9 -10 18 -15.5t16 -5.5v1z" />
    <glyph glyph-name="p" unicode="p" horiz-adv-x="620" 
d="M56 604h292q145 -1 198.5 -72.5t53.5 -160.5q0 -127 -86.5 -237.5t-265.5 -147.5v-195h-192v813v0zM248 441v-278q68 8 110.5 63.5t45.5 120.5v5.5v4.5q0 40 -17.5 57t-37.5 22q-11 3 -21.5 3.5t-18.5 0.5l-61 1v0z" />
    <glyph glyph-name="q" unicode="q" horiz-adv-x="620" 
d="M568 604v-813h-192v209h-105q-145 0 -198 71t-53 160q0 152 103.5 262t247.5 110l197 1v0zM376 163v278h-4q-68 -10 -110.5 -65.5t-45.5 -120.5v-5.5v-4.5q0 -41 17 -58t38 -22q10 -2 20.5 -2.5t18.5 -0.5l66 1v0z" />
    <glyph glyph-name="r" unicode="r" horiz-adv-x="400" 
d="M58 604h184v-35q29 26 62 36.5t72 11.5v-172q-38 -2 -72 -16.5t-54 -49.5v-379h-192v604v0z" />
    <glyph glyph-name="s" unicode="s" horiz-adv-x="440" 
d="M347 604l48 -158h-86q-31 -1 -43 -5.5t-12 -18.5q0 -6 3 -11.5t7 -10.5q2 -3 3.5 -4.5t2.5 -3.5l85 -106q24 -31 41 -65t17 -74q0 -58 -40.5 -102.5t-110.5 -44.5h-195l-48 163h106q3 -1 7 -1.5t8 -0.5t8 -0.5t8 -0.5h2.5h2.5q12 0 21 3t9 13q0 4 -2 9l-4 10l-4.5 6.5
l-4.5 6.5q-4 4 -7 8t-5 7l-81 106q-24 30 -41.5 62.5t-17.5 72.5q0 11 3.5 27t12.5 33q15 30 49.5 54.5t96.5 24.5l161 1v0z" />
    <glyph glyph-name="t" unicode="t" horiz-adv-x="380" 
d="M255 779v-175h101v-158h-101v-230q0 -22 9.5 -37t39.5 -17l76 1l-48 -163h-87q-79 0 -130.5 37.5t-51.5 146.5v262h-43v158h43v118l192 57v0z" />
    <glyph glyph-name="u" unicode="u" horiz-adv-x="620" 
d="M570 604v-604h-307q-141 0 -191.5 74t-50.5 177q0 35 7 73.5t18 77.5q12 41 27 81t31 76l10 23l10 21l197 1q-8 -23 -17.5 -47.5l-19.5 -51.5l-14 -38.5t-13 -39.5q-14 -43 -23.5 -85t-9.5 -78q0 -73 37 -87.5t96 -14.5l21 1v441h192v0z" />
    <glyph glyph-name="v" unicode="v" horiz-adv-x="560" 
d="M581 604l-190 -604h-222l-190 604h202l98 -387h2l98 387h202v0z" />
    <glyph glyph-name="w" unicode="w" horiz-adv-x="880" 
d="M900 604l-163 -604h-207l-89 365h-3l-89 -365h-207l-163 604h205l74 -407h3l88 407h181l88 -407h3l74 407h205v0z" />
    <glyph glyph-name="x" unicode="x" horiz-adv-x="520" 
d="M263 423l58 181h217l-151 -281l171 -323h-223l-74 216h-2l-74 -216h-223l171 323l-151 281h217l62 -181h2v0z" />
    <glyph glyph-name="y" unicode="y" horiz-adv-x="560" 
d="M588 604l-288 -812h-206l94 260l-216 552h228l87 -286h2l87 286h212v0z" />
    <glyph glyph-name="z" unicode="z" horiz-adv-x="480" 
d="M65 604h414l-205 -441h193l-48 -163h-429l208 446h-181l48 158v0z" />
    <glyph glyph-name="braceleft" unicode="{" horiz-adv-x="400" 
d="M317 640v-183q0 -64 -15 -101.5t-74 -50.5v-2q59 -14 74 -51.5t15 -100.5v-182q0 -59 20 -88.5t70 -43.5v-45h-165q-61 0 -100 33t-39 77v272q0 55 -18.5 85.5t-66.5 42.5v4q48 11 66.5 41.5t18.5 87.5v272q0 43 39 76t100 33l165 1v-45q-50 -15 -70 -44.5t-20 -88.5v1z
" />
    <glyph glyph-name="bar" unicode="|" horiz-adv-x="500" 
 />
    <glyph glyph-name="braceright" unicode="}" horiz-adv-x="400" 
d="M-7 772v45h165q61 -1 100 -34t39 -77v-270q0 -58 18.5 -88.5t66.5 -42.5v-2q-48 -13 -66.5 -43.5t-18.5 -86.5v-271q0 -44 -39 -77t-100 -33h-165v45q50 14 70 43.5t20 88.5v183q0 62 15.5 99.5t73.5 50.5v4q-58 12 -73.5 49.5t-15.5 100.5v184q0 58 -20 87.5t-69 43.5z
" />
    <glyph glyph-name="asciitilde" unicode="~" horiz-adv-x="500" 
 />
    <glyph glyph-name="Adieresis" unicode="&#xc4;" horiz-adv-x="760" 
d="M692 608v-608h-214v259h-234q1 -70 24 -135.5t58 -123.5l-174 -115q-59 89 -93 193t-34 212q0 12 0.5 24.5t1.5 24.5q7 95 42 185t103 158q86 86 186 110t215 24l105 1l50 -184h-168q-121 -1 -179 -38.5t-85 -82.5q-10 -18 -17.5 -36.5l-13.5 -33.5l213 1v165h214v0z
M367 1030v-135h-133v135h133v0zM565 1030v-135h-133v135h133v0z" />
    <glyph glyph-name="Aring" unicode="&#xc5;" horiz-adv-x="760" 
d="M692 608v-608h-214v259h-234q1 -70 24 -135.5t58 -123.5l-174 -115q-59 89 -93 193t-34 212q0 12 0.5 24.5t1.5 24.5q7 95 42 185t103 158q86 86 186 110t215 24l105 1l50 -184h-168q-121 -1 -179 -38.5t-85 -82.5q-10 -18 -17.5 -36.5l-13.5 -33.5l213 1v165h214v0z
M421 837q-46 -1 -78.5 16t-32.5 67q0 10 1.5 20.5t4.5 21.5q10 39 37 72t68 33t68 -33t37 -72q3 -11 4.5 -21.5t1.5 -20.5q0 -50 -32.5 -67t-78.5 -17v1zM373 932q0 -23 14.5 -30.5t33.5 -7.5q20 0 34 7.5t14 29.5q0 6 -1 12.5t-3 13.5q-4 16 -15 30t-29 14t-29 -14t-15 -30
q-2 -7 -3 -13.5t-1 -12.5v1z" />
    <glyph glyph-name="Ccedilla" unicode="&#xc7;" horiz-adv-x="580" 
d="M385 97v-107h23q18 0 25 -9t7 -23v-109v-4v-3q-2 -19 -11.5 -34.5t-27.5 -15.5h-113v85h67v57h-19q-12 0 -22 7t-10 24v132h81v0zM581 184l-50 -184h-37q-207 0 -337.5 149.5t-130.5 346.5q0 124 72 222t255 98l167 1l50 -184h-167q-12 -1 -31.5 -2t-40.5 -8
q-32 -11 -59 -43t-27 -103q0 -118 82 -206.5t230 -88.5h6t6 1h6h6v1z" />
    <glyph glyph-name="Eacute" unicode="&#xc9;" horiz-adv-x="640" 
d="M563 817l50 -184h-329v-121h299l-50 -184h-249v-144h351l-50 -184h-515v817h493v0zM497 1030l-75 -160h-140l66 160h149v0z" />
    <glyph glyph-name="Ntilde" unicode="&#xd1;" horiz-adv-x="800" 
d="M728 817v-817h-214v241l-226 275h-2v-516h-214v817h204l238 -278v278h214v0zM496 1024l73 -65q-4 -8 -8.5 -14t-9.5 -11q-27 -33 -52 -40.5t-35 -7.5q-4 0 -8.5 0.5t-8.5 0.5q-13 2 -25.5 5.5t-24.5 8.5l-32.5 9.5t-30.5 4.5t-28 -6t-24 -23l-71 66q8 12 16 21.5t16 17.5
q19 19 38.5 25.5t35.5 6.5q7 0 19 -3.5l26 -7.5q2 0 4 -0.5t4 -1.5q4 -1 8.5 -2.5t9.5 -2.5q1 -1 2.5 -1.5t2.5 -0.5l23.5 -7.5t20.5 -3.5q19 0 35.5 9t23.5 22v1z" />
    <glyph glyph-name="Odieresis" unicode="&#xd6;" horiz-adv-x="800" 
d="M400 -18q-145 0 -232.5 114t-119.5 252q-10 41 -15 82t-5 79q0 133 78.5 229t293.5 96t293.5 -96t78.5 -229q0 -38 -5 -79t-15 -82q-32 -138 -119.5 -252t-232.5 -114v0zM400 175q52 -1 92.5 80.5t52.5 179.5q2 16 3 32t1 32q0 82 -35 113t-114 31t-114 -31t-35 -113
q0 -16 1 -32t3 -32q12 -98 52.5 -179.5t92.5 -81.5v1zM367 1030v-135h-133v135h133v0zM565 1030v-135h-133v135h133v0z" />
    <glyph glyph-name="Udieresis" unicode="&#xdc;" horiz-adv-x="760" 
d="M697 817v-817h-347q-179 0 -251.5 96.5t-72.5 238.5q0 128 42.5 248t99.5 233l231 1l-30.5 -66t-35.5 -80q-21 -48 -40.5 -101.5t-32.5 -108.5q-7 -31 -11 -62t-4 -61q0 -71 27 -103t59 -43q21 -7 40.5 -8t31.5 -1l80 1v633h214v0zM367 1030v-135h-133v135h133v0z
M565 1030v-135h-133v135h133v0z" />
    <glyph glyph-name="aacute" unicode="&#xe1;" horiz-adv-x="620" 
d="M564 604v-604h-193q-144 0 -247.5 110t-103.5 261q0 89 53 160.5t198 71.5l293 1v0zM372 163v278h-62q-8 -1 -18.5 -1.5t-20.5 -2.5q-21 -5 -38 -22t-17 -58v-4.5v-5.5q3 -65 45.5 -120.5t110.5 -64.5v1zM487 817l-75 -160h-140l66 160h149v0z" />
    <glyph glyph-name="agrave" unicode="&#xe0;" horiz-adv-x="620" 
d="M564 604v-604h-193q-144 0 -247.5 110t-103.5 261q0 89 53 160.5t198 71.5l293 1v0zM372 163v278h-62q-8 -1 -18.5 -1.5t-20.5 -2.5q-21 -5 -38 -22t-17 -58v-4.5v-5.5q3 -65 45.5 -120.5t110.5 -64.5v1zM202 817h148l67 -160h-140l-75 160v0z" />
    <glyph glyph-name="acircumflex" unicode="&#xe2;" horiz-adv-x="620" 
d="M564 604v-604h-193q-144 0 -247.5 110t-103.5 261q0 89 53 160.5t198 71.5l293 1v0zM372 163v278h-62q-8 -1 -18.5 -1.5t-20.5 -2.5q-21 -5 -38 -22t-17 -58v-4.5v-5.5q3 -65 45.5 -120.5t110.5 -64.5v1zM385 817l96 -154h-136l-37 61l-36 -61h-133l95 154h151v0z" />
    <glyph glyph-name="adieresis" unicode="&#xe4;" horiz-adv-x="620" 
d="M564 604v-604h-193q-144 0 -247.5 110t-103.5 261q0 89 53 160.5t198 71.5l293 1v0zM372 163v278h-62q-8 -1 -18.5 -1.5t-20.5 -2.5q-21 -5 -38 -22t-17 -58v-4.5v-5.5q3 -65 45.5 -120.5t110.5 -64.5v1zM277 817v-135h-133v135h133v0zM475 817v-135h-133v135h133v0z" />
    <glyph glyph-name="atilde" unicode="&#xe3;" horiz-adv-x="620" 
d="M564 604v-604h-193q-144 0 -247.5 110t-103.5 261q0 89 53 160.5t198 71.5l293 1v0zM372 163v278h-62q-8 -1 -18.5 -1.5t-20.5 -2.5q-21 -5 -38 -22t-17 -58v-4.5v-5.5q3 -65 45.5 -120.5t110.5 -64.5v1zM416 811l73 -65q-4 -8 -8.5 -14t-9.5 -11q-27 -33 -52 -40.5
t-35 -7.5q-4 0 -8.5 0.5t-8.5 0.5q-13 2 -25.5 5.5t-24.5 8.5l-32.5 9.5t-30.5 4.5t-28 -6t-24 -23l-71 66q8 12 16 21.5t16 17.5q19 19 38.5 25.5t35.5 6.5q7 0 19 -3.5l26 -7.5q2 0 4 -0.5t4 -1.5q4 -1 8.5 -2.5t9.5 -2.5q1 -1 2.5 -1.5t2.5 -0.5l23.5 -7.5t20.5 -3.5
q19 0 35.5 9t23.5 22v1z" />
    <glyph glyph-name="aring" unicode="&#xe5;" horiz-adv-x="620" 
d="M564 604v-604h-193q-144 0 -247.5 110t-103.5 261q0 89 53 160.5t198 71.5l293 1v0zM372 163v278h-62q-8 -1 -18.5 -1.5t-20.5 -2.5q-21 -5 -38 -22t-17 -58v-4.5v-5.5q3 -65 45.5 -120.5t110.5 -64.5v1zM339 624q-46 -1 -78.5 16t-32.5 67q0 10 1.5 20.5t4.5 21.5
q10 39 37 72t68 33t68 -33t37 -72q3 -11 4.5 -21.5t1.5 -20.5q0 -50 -32.5 -67t-78.5 -17v1zM291 719q0 -23 14.5 -30.5t33.5 -7.5q20 0 34 7.5t14 29.5q0 6 -1 12.5t-3 13.5q-4 16 -15 30t-29 14t-29 -14t-15 -30q-2 -7 -3 -13.5t-1 -12.5v1z" />
    <glyph glyph-name="ccedilla" unicode="&#xe7;" horiz-adv-x="460" 
d="M315 97v-107h23q18 0 25 -9t7 -23v-109v-4v-3q-2 -19 -11.5 -34.5t-27.5 -15.5h-113v85h67v57h-19q-12 0 -22 7t-10 24v132h81v0zM392 604l48 -163h-130q-8 -1 -18.5 -1.5t-20.5 -2.5q-21 -5 -38 -22t-17 -58q0 -8 1 -17t2 -17q12 -61 56.5 -111t106.5 -50l68 1l-48 -163
h-31q-144 0 -247.5 110t-103.5 261q0 89 53 160.5t198 71.5l121 1v0z" />
    <glyph glyph-name="eacute" unicode="&#xe9;" horiz-adv-x="580" 
d="M535 163l-48 -163h-116q-144 0 -247.5 110t-103.5 261q2 128 65.5 188t211.5 58l40 1q99 -1 146.5 -28t64.5 -59q12 -24 14 -45t2 -32v-2v-2q0 -93 -61 -156.5t-135 -107.5q-6 -3 -11.5 -6.5t-11.5 -6.5q38 -8 64 -9.5t50 -1.5l76 1v0zM368 424q0 16 -12 22t-27 7
q-5 1 -10 1h-10q-45 0 -69 -22.5t-24 -67.5q0 -6 0.5 -12t1.5 -12q1 -12 4 -24t7 -24l27.5 15t33.5 21q23 16 43.5 34.5t29.5 38.5q2 6 3.5 11.5t1.5 10.5v1zM467 817l-75 -160h-140l66 160h149v0z" />
    <glyph glyph-name="egrave" unicode="&#xe8;" horiz-adv-x="580" 
d="M535 163l-48 -163h-116q-144 0 -247.5 110t-103.5 261q2 128 65.5 188t211.5 58l40 1q99 -1 146.5 -28t64.5 -59q12 -24 14 -45t2 -32v-2v-2q0 -93 -61 -156.5t-135 -107.5q-6 -3 -11.5 -6.5t-11.5 -6.5q38 -8 64 -9.5t50 -1.5l76 1v0zM368 424q0 16 -12 22t-27 7
q-5 1 -10 1h-10q-45 0 -69 -22.5t-24 -67.5q0 -6 0.5 -12t1.5 -12q1 -12 4 -24t7 -24l27.5 15t33.5 21q23 16 43.5 34.5t29.5 38.5q2 6 3.5 11.5t1.5 10.5v1zM182 817h148l67 -160h-140l-75 160v0z" />
    <glyph glyph-name="ecircumflex" unicode="&#xea;" horiz-adv-x="580" 
d="M535 163l-48 -163h-116q-144 0 -247.5 110t-103.5 261q2 128 65.5 188t211.5 58l40 1q99 -1 146.5 -28t64.5 -59q12 -24 14 -45t2 -32v-2v-2q0 -93 -61 -156.5t-135 -107.5q-6 -3 -11.5 -6.5t-11.5 -6.5q38 -8 64 -9.5t50 -1.5l76 1v0zM368 424q0 16 -12 22t-27 7
q-5 1 -10 1h-10q-45 0 -69 -22.5t-24 -67.5q0 -6 0.5 -12t1.5 -12q1 -12 4 -24t7 -24l27.5 15t33.5 21q23 16 43.5 34.5t29.5 38.5q2 6 3.5 11.5t1.5 10.5v1zM365 817l96 -154h-136l-37 61l-36 -61h-133l95 154h151v0z" />
    <glyph glyph-name="edieresis" unicode="&#xeb;" horiz-adv-x="580" 
d="M535 163l-48 -163h-116q-144 0 -247.5 110t-103.5 261q2 128 65.5 188t211.5 58l40 1q99 -1 146.5 -28t64.5 -59q12 -24 14 -45t2 -32v-2v-2q0 -93 -61 -156.5t-135 -107.5q-6 -3 -11.5 -6.5t-11.5 -6.5q38 -8 64 -9.5t50 -1.5l76 1v0zM368 424q0 16 -12 22t-27 7
q-5 1 -10 1h-10q-45 0 -69 -22.5t-24 -67.5q0 -6 0.5 -12t1.5 -12q1 -12 4 -24t7 -24l27.5 15t33.5 21q23 16 43.5 34.5t29.5 38.5q2 6 3.5 11.5t1.5 10.5v1zM257 817v-135h-133v135h133v0zM455 817v-135h-133v135h133v0z" />
    <glyph glyph-name="iacute" unicode="&#xed;" horiz-adv-x="300" 
d="M246 604v-604h-192v604h192v0zM317 817l-75 -160h-140l66 160h149v0z" />
    <glyph glyph-name="igrave" unicode="&#xec;" horiz-adv-x="300" 
d="M246 604v-604h-192v604h192v0zM32 817h148l67 -160h-140l-75 160v0z" />
    <glyph glyph-name="icircumflex" unicode="&#xee;" horiz-adv-x="300" 
d="M246 604v-604h-192v604h192v0zM225 817l96 -154h-136l-37 61l-36 -61h-133l95 154h151v0z" />
    <glyph glyph-name="idieresis" unicode="&#xef;" horiz-adv-x="300" 
d="M246 604v-604h-192v604h192v0zM117 817v-135h-133v135h133v0zM315 817v-135h-133v135h133v0z" />
    <glyph glyph-name="ntilde" unicode="&#xf1;" horiz-adv-x="620" 
d="M53 604h298q123 -1 169.5 -57t46.5 -176v-371h-192v344v0.5v1.5q-2 57 -13 75t-71 19l-46 1v-441h-192v604v0zM406 811l73 -65q-4 -8 -8.5 -14t-9.5 -11q-27 -33 -52 -40.5t-35 -7.5q-4 0 -8.5 0.5t-8.5 0.5q-13 2 -25.5 5.5t-24.5 8.5l-32.5 9.5t-30.5 4.5t-28 -6
t-24 -23l-71 66q8 12 16 21.5t16 17.5q19 19 38.5 25.5t35.5 6.5q7 0 19 -3.5l26 -7.5q2 0 4 -0.5t4 -1.5q4 -1 8.5 -2.5t9.5 -2.5q1 -1 2.5 -1.5t2.5 -0.5l23.5 -7.5t20.5 -3.5q19 0 35.5 9t23.5 22v1z" />
    <glyph glyph-name="oacute" unicode="&#xf3;" horiz-adv-x="620" 
d="M268 618h84q102 -1 153 -37.5t71 -80.5q17 -36 20 -68t3 -43v-0.5v-0.5q0 -16 -1 -32t-3 -32q-16 -128 -90 -235t-195 -107t-195 107t-90 235q-2 16 -3 32t-1 32v0.5v0.5q0 11 3 43t20 68q20 44 71 80.5t153 36.5v1zM310 156q7 -1 16 4.5t18 15.5q22 25 40.5 76t18.5 119
q0 44 -24.5 63.5t-68.5 19.5t-68.5 -19.5t-24.5 -63.5q0 -68 18.5 -119t40.5 -76q9 -10 18 -15.5t16 -5.5v1zM487 817l-75 -160h-140l66 160h149v0z" />
    <glyph glyph-name="ograve" unicode="&#xf2;" horiz-adv-x="620" 
d="M268 618h84q102 -1 153 -37.5t71 -80.5q17 -36 20 -68t3 -43v-0.5v-0.5q0 -16 -1 -32t-3 -32q-16 -128 -90 -235t-195 -107t-195 107t-90 235q-2 16 -3 32t-1 32v0.5v0.5q0 11 3 43t20 68q20 44 71 80.5t153 36.5v1zM310 156q7 -1 16 4.5t18 15.5q22 25 40.5 76t18.5 119
q0 44 -24.5 63.5t-68.5 19.5t-68.5 -19.5t-24.5 -63.5q0 -68 18.5 -119t40.5 -76q9 -10 18 -15.5t16 -5.5v1zM202 817h148l67 -160h-140l-75 160v0z" />
    <glyph glyph-name="ocircumflex" unicode="&#xf4;" horiz-adv-x="620" 
d="M268 618h84q102 -1 153 -37.5t71 -80.5q17 -36 20 -68t3 -43v-0.5v-0.5q0 -16 -1 -32t-3 -32q-16 -128 -90 -235t-195 -107t-195 107t-90 235q-2 16 -3 32t-1 32v0.5v0.5q0 11 3 43t20 68q20 44 71 80.5t153 36.5v1zM310 156q7 -1 16 4.5t18 15.5q22 25 40.5 76t18.5 119
q0 44 -24.5 63.5t-68.5 19.5t-68.5 -19.5t-24.5 -63.5q0 -68 18.5 -119t40.5 -76q9 -10 18 -15.5t16 -5.5v1zM385 817l96 -154h-136l-37 61l-36 -61h-133l95 154h151v0z" />
    <glyph glyph-name="odieresis" unicode="&#xf6;" horiz-adv-x="620" 
d="M268 618h84q102 -1 153 -37.5t71 -80.5q17 -36 20 -68t3 -43v-0.5v-0.5q0 -16 -1 -32t-3 -32q-16 -128 -90 -235t-195 -107t-195 107t-90 235q-2 16 -3 32t-1 32v0.5v0.5q0 11 3 43t20 68q20 44 71 80.5t153 36.5v1zM310 156q7 -1 16 4.5t18 15.5q22 25 40.5 76t18.5 119
q0 44 -24.5 63.5t-68.5 19.5t-68.5 -19.5t-24.5 -63.5q0 -68 18.5 -119t40.5 -76q9 -10 18 -15.5t16 -5.5v1zM277 817v-135h-133v135h133v0zM475 817v-135h-133v135h133v0z" />
    <glyph glyph-name="otilde" unicode="&#xf5;" horiz-adv-x="620" 
d="M268 618h84q102 -1 153 -37.5t71 -80.5q17 -36 20 -68t3 -43v-0.5v-0.5q0 -16 -1 -32t-3 -32q-16 -128 -90 -235t-195 -107t-195 107t-90 235q-2 16 -3 32t-1 32v0.5v0.5q0 11 3 43t20 68q20 44 71 80.5t153 36.5v1zM310 156q7 -1 16 4.5t18 15.5q22 25 40.5 76t18.5 119
q0 44 -24.5 63.5t-68.5 19.5t-68.5 -19.5t-24.5 -63.5q0 -68 18.5 -119t40.5 -76q9 -10 18 -15.5t16 -5.5v1zM416 811l73 -65q-4 -8 -8.5 -14t-9.5 -11q-27 -33 -52 -40.5t-35 -7.5q-4 0 -8.5 0.5t-8.5 0.5q-13 2 -25.5 5.5t-24.5 8.5l-32.5 9.5t-30.5 4.5t-28 -6t-24 -23
l-71 66q8 12 16 21.5t16 17.5q19 19 38.5 25.5t35.5 6.5q7 0 19 -3.5l26 -7.5q2 0 4 -0.5t4 -1.5q4 -1 8.5 -2.5t9.5 -2.5q1 -1 2.5 -1.5t2.5 -0.5l23.5 -7.5t20.5 -3.5q19 0 35.5 9t23.5 22v1z" />
    <glyph glyph-name="uacute" unicode="&#xfa;" horiz-adv-x="620" 
d="M570 604v-604h-307q-141 0 -191.5 74t-50.5 177q0 35 7 73.5t18 77.5q12 41 27 81t31 76l10 23l10 21l197 1q-8 -23 -17.5 -47.5l-19.5 -51.5l-14 -38.5t-13 -39.5q-14 -43 -23.5 -85t-9.5 -78q0 -73 37 -87.5t96 -14.5l21 1v441h192v0zM487 817l-75 -160h-140l66 160
h149v0z" />
    <glyph glyph-name="ugrave" unicode="&#xf9;" horiz-adv-x="620" 
d="M570 604v-604h-307q-141 0 -191.5 74t-50.5 177q0 35 7 73.5t18 77.5q12 41 27 81t31 76l10 23l10 21l197 1q-8 -23 -17.5 -47.5l-19.5 -51.5l-14 -38.5t-13 -39.5q-14 -43 -23.5 -85t-9.5 -78q0 -73 37 -87.5t96 -14.5l21 1v441h192v0zM202 817h148l67 -160h-140
l-75 160v0z" />
    <glyph glyph-name="ucircumflex" unicode="&#xfb;" horiz-adv-x="620" 
d="M570 604v-604h-307q-141 0 -191.5 74t-50.5 177q0 35 7 73.5t18 77.5q12 41 27 81t31 76l10 23l10 21l197 1q-8 -23 -17.5 -47.5l-19.5 -51.5l-14 -38.5t-13 -39.5q-14 -43 -23.5 -85t-9.5 -78q0 -73 37 -87.5t96 -14.5l21 1v441h192v0zM397 817l96 -154h-136l-37 61
l-36 -61h-133l95 154h151v0z" />
    <glyph glyph-name="udieresis" unicode="&#xfc;" horiz-adv-x="620" 
d="M570 604v-604h-307q-141 0 -191.5 74t-50.5 177q0 35 7 73.5t18 77.5q12 41 27 81t31 76l10 23l10 21l197 1q-8 -23 -17.5 -47.5l-19.5 -51.5l-14 -38.5t-13 -39.5q-14 -43 -23.5 -85t-9.5 -78q0 -73 37 -87.5t96 -14.5l21 1v441h192v0zM289 817v-135h-133v135h133v0z
M487 817v-135h-133v135h133v0z" />
    <glyph glyph-name="dagger" unicode="&#x2020;" horiz-adv-x="500" 
 />
    <glyph glyph-name="degree" horiz-adv-x="500" 
 />
    <glyph glyph-name="cent" unicode="&#xa2;" horiz-adv-x="500" 
d="M403 710l48 -163h-130q-8 -1 -18.5 -1.5t-20.5 -2.5q-21 -5 -38 -22t-17 -58q0 -8 1 -17t2 -17q12 -61 56.5 -111t106.5 -50l68 1l-48 -163h-31q-3 -1 -5.5 -1h-5.5l-23.5 2t-24.5 3v-66h-106v109q-38 19 -73 53t-60 77t-39 92.5t-14 101.5q0 78 40 144t146 83v97h106
v-91h80v0z" />
    <glyph glyph-name="sterling" unicode="&#xa3;" horiz-adv-x="660" 
d="M564 817l50 -184h-191q-69 -1 -80.5 -14t-11.5 -74v-7.5v-7.5v-23h188v-184h-188v-139h323l-50 -184h-487v323h-60v184h60v102q0 122 58 163.5t127 43.5h5.5h5.5l251 1v0z" />
    <glyph glyph-name="section" unicode="&#xa7;" horiz-adv-x="500" 
 />
    <glyph glyph-name="bullet" horiz-adv-x="480" 
d="M444 604v-398h-408v398h408v0z" />
    <glyph glyph-name="paragraph" unicode="&#xb6;" horiz-adv-x="500" 
 />
    <glyph glyph-name="germandbls" unicode="&#xdf;" horiz-adv-x="640" 
d="M248 567v-567h-192v612q0 126 57.5 174t211.5 48q169 0 214 -57t45 -126q0 -14 -3 -29t-9 -30q-13 -33 -35 -65.5t-47 -60.5q-2 -3 -4.5 -6t-5.5 -6q45 -44 84.5 -102.5t51.5 -119.5q3 -12 4 -23t1 -22q0 -13 -1.5 -26.5t-4.5 -27.5q-12 -50 -56.5 -91.5t-149.5 -41.5
h-83l-48 163q5 -1 10 -1h11q5 -1 10.5 -1h11.5q32 0 58 8t26 38q0 21 -12 47.5t-29 54.5q-9 14 -19.5 28.5l-20.5 27.5q-18 24 -35 43.5t-29 31.5q9 11 22 25t26 30q13 15 25 31t21 32q8 15 13.5 30t5.5 29q0 19 -15 29t-32 13q-3 1 -6.5 1h-6.5q-49 0 -57 -27t-8 -63v-2v-2
v1z" />
    <glyph glyph-name="registered" unicode="&#xae;" horiz-adv-x="940" 
d="M470 -18q-178 0 -302.5 124.5t-124.5 301.5t124.5 301.5t302.5 124.5q177 0 301.5 -124.5t124.5 -301.5t-124.5 -301.5t-301.5 -124.5v0zM470 97q128 -1 219.5 90.5t91.5 220.5t-91.5 220t-219.5 91q-130 0 -221 -91t-91 -220t91 -220.5t221 -91.5v1zM295 646h225
q69 -2 100 -28.5t38 -58.5q2 -6 2.5 -12.5t0.5 -12.5q0 -46 -29.5 -78.5t-70.5 -56.5q21 -38 46.5 -74t51.5 -66l15 -17t14 -15l-102 -63q-50 50 -93 116.5t-78 138.5l21.5 14l25.5 17q23 15 42 34t19 38q0 15 -11.5 20t-25.5 6h-9.5h-8.5h-2h-2l-197 1l28 97v0zM413 212
h-123v318h123v-318v0z" />
    <glyph glyph-name="copyright" unicode="&#xa9;" horiz-adv-x="940" 
d="M470 -18q-178 0 -302.5 124.5t-124.5 301.5t124.5 301.5t302.5 124.5q177 0 301.5 -124.5t124.5 -301.5t-124.5 -301.5t-301.5 -124.5v0zM470 97q128 -1 219.5 90.5t91.5 220.5t-91.5 220t-219.5 91q-130 0 -221 -91t-91 -220t91 -220.5t221 -91.5v1zM637 282l-36 -105
h-26q-148 -1 -241.5 84.5t-93.5 197.5q0 71 51.5 127t182.5 56l116 1l36 -105h-74q-65 -1 -110 -12.5t-45 -77.5q0 -67 58 -117.5t164 -49.5h9.5h8.5v1z" />
    <glyph glyph-name="trademark" unicode="&#x2122;" horiz-adv-x="910" 
d="M378 817l29 -94h-131v-318h-123v318h-130l29 94h326v0zM878 817v-412h-123v236l-96 -109l-93 109v-236h-123v412h117l99 -119l102 119h117v0z" />
    <glyph glyph-name="acute" unicode="&#xb4;" horiz-adv-x="380" 
d="M367 817l-75 -160h-140l66 160h149v0z" />
    <glyph glyph-name="dieresis" unicode="&#xa8;" horiz-adv-x="500" 
d="M217 817v-135h-133v135h133v0zM415 817v-135h-133v135h133v0z" />
    <glyph glyph-name="AE" unicode="&#x2260;" 
 />
    <glyph glyph-name="Oslash" unicode="&#xc6;" horiz-adv-x="1047" 
d="M297 507h181v101h214v-101h299l-50 -184h-249v-139h350l-51 -184h-513v323h-237q-1 -93 23 -179t62 -144l-174 -115q-59 89 -93 193t-34 212q0 213 126.5 369.5t374.5 156.5l439 1l50 -184h-479q-85 -1 -140 -30.5t-81 -65.5q-6 -8 -10.5 -15.5t-7.5 -15.5v1z" />
    <glyph glyph-name="plusminus" unicode="&#xd8;" horiz-adv-x="800" 
d="M12 64l101 114q-23 40 -40 86t-27 92q-9 40 -13.5 78.5t-4.5 74.5q0 133 78.5 229t293.5 96q72 0 127.5 -12t96.5 -33l72 85l138 -118l-87 -102q14 -32 19.5 -69t5.5 -76q0 -38 -5 -79t-15 -82q-32 -138 -119.5 -252t-232.5 -114q-49 0 -91 14.5t-79 40.5l-82 -91
l-136 118v0zM400 175q52 -1 92.5 80.5t52.5 179.5q2 16 3 32t1 32q0 82 -35 113t-114 31t-114 -31t-35 -113q0 -16 1 -32t3 -32q12 -98 52.5 -179.5t92.5 -81.5v1z" />
    <glyph glyph-name="yen" unicode="&#x221e;" 
 />
    <glyph glyph-name="mu" unicode="&#xb1;" horiz-adv-x="500" 
 />
    <glyph glyph-name="ordfeminine" unicode="&#x2264;" 
 />
    <glyph glyph-name="ordmasculine" unicode="&#x2265;" 
 />
    <glyph glyph-name="ae" unicode="&#xa5;" horiz-adv-x="654" 
d="M674 817l-180 -369h129v-158h-189v-174v-15.5v-14.5q1 -22 3.5 -44t9.5 -42l-194 -124q-21 42 -27 87.5t-6 91.5v235h-187v158h127l-180 369h243l104 -244l104 244h243v0z" />
    <glyph glyph-name="oslash" unicode="&#xb5;" horiz-adv-x="620" 
d="M570 604v-604h-318q2 -10 5 -19.5t7 -19.5q8 -19 20.5 -38.5t30.5 -39.5l-150 -108q-12 12 -27 30.5t-31 45.5q-32 54 -59 149.5t-27 250.5q0 35 7 73.5t18 77.5q12 41 27 81t31 76l10 23l10 21l197 1q-8 -23 -17.5 -47.5l-19.5 -51.5l-14 -38.5t-13 -39.5
q-14 -43 -23.5 -85t-9.5 -78q0 -73 37 -87.5t96 -14.5l21 1v441h192v0z" />
    <glyph glyph-name="questiondown" unicode="&#x2202;" 
 />
    <glyph glyph-name="exclamdown" unicode="&#x3a3;" 
 />
    <glyph glyph-name="florin" unicode="&#x220f;" 
 />
    <glyph glyph-name="guillemotleft" unicode="&#x3c0;" 
 />
    <glyph glyph-name="guillemotright" unicode="&#x222b;" 
 />
    <glyph glyph-name="ellipsis" unicode="&#xaa;" horiz-adv-x="372" 
d="M21 410h341v-98h-341v98v0zM362 825v-362h-125q-94 -1 -161 65t-67 157q0 53 34.5 96t128.5 43l190 1v0zM238 561v166h-41q-5 -1 -12 -1.5t-14 -1.5q-13 -3 -24 -13.5t-11 -34.5v-1.5v-1.5q1 -40 29 -74t73 -39v1z" />
    <glyph glyph-name="Agrave" unicode="&#xba;" horiz-adv-x="372" 
d="M10 410h352v-98h-352v98v0zM158 835h55q66 -1 99.5 -23t46.5 -48q11 -21 13 -40.5t2 -26.5v0v0q0 -10 -0.5 -20t-2.5 -20q-10 -77 -58.5 -141t-126.5 -64t-126.5 64t-58.5 141q-1 10 -1.5 20t-0.5 20v0v0q0 7 1.5 26.5t12.5 40.5q13 26 46 48t99 22v1zM186 558
q5 -1 11 2.5t12 10.5q14 16 26 46t12 69q0 27 -16 38.5t-45 11.5t-45 -11.5t-16 -38.5q0 -40 12 -71t27 -46q6 -6 11.5 -9t10.5 -3v1z" />
    <glyph glyph-name="Atilde" unicode="&#x3a9;" 
 />
    <glyph glyph-name="Otilde" unicode="&#xe6;" horiz-adv-x="892" 
d="M271 604h400q119 -4 162 -55t43 -116q0 -82 -54.5 -143t-119.5 -103q-7 -5 -13.5 -9l-13.5 -8q38 -8 64 -9.5t50 -1.5l76 1l-48 -163h-116q-17 1 -39.5 3t-45.5 7q-20 4 -39.5 11.5t-35.5 19.5v-38h-170q-144 0 -247.5 110t-103.5 261q0 89 53 160.5t198 71.5v1zM372 441
h-62q-8 -1 -18.5 -1.5t-20.5 -2.5q-21 -5 -38 -22t-17 -58v-4.5v-5.5q3 -65 45.5 -120.5t110.5 -64.5v279v0zM680 413q0 16 -12 22t-27 7q-5 1 -10 1h-10q-45 0 -69 -22.5t-24 -67.5q0 -6 0.5 -12t1.5 -12q1 -12 4 -24t7 -24l27.5 15t33.5 21q23 16 43.5 34.5t29.5 38.5
q2 6 3.5 11.5t1.5 10.5v1z" />
    <glyph glyph-name="OE" unicode="&#xf8;" horiz-adv-x="620" 
d="M520 640l100 -87l-45 -52l1.5 -3t0.5 -2q16 -35 19 -66t3 -42q0 -16 -1 -32t-3 -32q-16 -128 -90 -235t-195 -107q-42 0 -79 14.5t-68 41.5l-55 -63l-100 89l71 82q-21 40 -35 87t-19 95q-2 15 -3 30t-1 30v0.5v0.5q0 11 3 43t20 68q20 44 71 80.5t153 36.5l84 1
q40 -1 71.5 -7t55.5 -17l41 46v0zM310 156q7 -1 16 4.5t18 15.5q22 25 40.5 76t18.5 119q0 44 -24.5 63.5t-68.5 19.5t-68.5 -19.5t-24.5 -63.5q0 -68 18.5 -119t40.5 -76q9 -10 18 -15.5t16 -5.5v1z" />
    <glyph glyph-name="oe" unicode="&#xbf;" horiz-adv-x="640" 
d="M543 -212h-245q-125 0 -187 70t-62 158q0 75 37 133t82 100q45 43 82 71.5t37 45.5v1.5v0.5q-1 1 -1 1.5v0.5l212 1v-59q0 -32 -24.5 -61t-58.5 -58l-14 -11.5l-14 -11.5q-41 -34 -75.5 -70t-34.5 -75q0 -29 23.5 -39.5t51.5 -12.5q11 -1 21.5 -1h19.5h7h6h184l-47 -184
v0zM287 420v184h211v-184h-211v0z" />
    <glyph glyph-name="endash" unicode="&#xa1;" horiz-adv-x="400" 
d="M305 -212h-211v583h211v-583v0zM305 420h-211v184h211v-184v0z" />
    <glyph glyph-name="emdash" unicode="&#xac;" 
 />
    <glyph glyph-name="quotedblleft" unicode="&#x221a;" 
 />
    <glyph glyph-name="quotedblright" unicode="&#x192;" horiz-adv-x="450" 
d="M127 446h-42v158h42q-1 7 -1 15.5v16.5q0 81 41.5 130.5t144.5 49.5l102 1l48 -163h-71q-3 -1 -6 -1h-6q-26 1 -43.5 -4.5t-16.5 -37.5v-3.5v-4.5l113 1v-158h-113v-441q0 -126 -49 -172t-183 -46h-24l-48 163h26h7t7 -1h8h8q21 0 38.5 8.5t17.5 42.5v446v0z" />
    <glyph glyph-name="quoteleft" unicode="&#x2248;" 
 />
    <glyph glyph-name="quoteright" unicode="&#x2206;" 
 />
    <glyph glyph-name="ydieresis" unicode="&#xab;" horiz-adv-x="500" 
d="M240 522l-92 -172l86 -192l-106 -48l-112 240l121 227l103 -55v0zM467 522l-92 -172l86 -192l-106 -48l-112 240l121 227l103 -55v0z" />
    <glyph glyph-name="Ydieresis" unicode="&#xbb;" horiz-adv-x="500" 
d="M33 522l103 55l121 -227l-112 -240l-106 48l86 192l-92 172v0zM260 522l103 55l121 -227l-112 -240l-106 48l86 192l-92 172v0z" />
    <glyph glyph-name="fraction" unicode="&#x2026;" horiz-adv-x="1000" 
d="M257 184v-184h-180v184h180v0zM590 184v-184h-180v184h180v0zM923 184v-184h-180v184h180v0z" />
    <glyph glyph-name="currency" unicode="&#xc0;" horiz-adv-x="760" 
d="M692 608v-608h-214v259h-234q1 -70 24 -135.5t58 -123.5l-174 -115q-59 89 -93 193t-34 212q0 12 0.5 24.5t1.5 24.5q7 95 42 185t103 158q86 86 186 110t215 24l105 1l50 -184h-168q-121 -1 -179 -38.5t-85 -82.5q-10 -18 -17.5 -36.5l-13.5 -33.5l213 1v165h214v0z
M272 1030h148l67 -160h-140l-75 160v0z" />
    <glyph glyph-name="guilsinglleft" unicode="&#xc3;" horiz-adv-x="760" 
d="M692 608v-608h-214v259h-234q1 -70 24 -135.5t58 -123.5l-174 -115q-59 89 -93 193t-34 212q0 12 0.5 24.5t1.5 24.5q7 95 42 185t103 158q86 86 186 110t215 24l105 1l50 -184h-168q-121 -1 -179 -38.5t-85 -82.5q-10 -18 -17.5 -36.5l-13.5 -33.5l213 1v165h214v0z
M511 1024l73 -65q-4 -8 -8.5 -14t-9.5 -11q-27 -33 -52 -40.5t-35 -7.5q-4 0 -8.5 0.5t-8.5 0.5q-13 2 -25.5 5.5t-24.5 8.5l-32.5 9.5t-30.5 4.5t-28 -6t-24 -23l-71 66q8 12 16 21.5t16 17.5q19 19 38.5 25.5t35.5 6.5q7 0 19 -3.5l26 -7.5q2 0 4 -0.5t4 -1.5
q4 -1 8.5 -2.5t9.5 -2.5q1 -1 2.5 -1.5t2.5 -0.5l23.5 -7.5t20.5 -3.5q19 0 35.5 9t23.5 22v1z" />
    <glyph glyph-name="guilsinglright" unicode="&#xd5;" horiz-adv-x="800" 
d="M400 -18q-145 0 -232.5 114t-119.5 252q-10 41 -15 82t-5 79q0 133 78.5 229t293.5 96t293.5 -96t78.5 -229q0 -38 -5 -79t-15 -82q-32 -138 -119.5 -252t-232.5 -114v0zM400 175q52 -1 92.5 80.5t52.5 179.5q2 16 3 32t1 32q0 82 -35 113t-114 31t-114 -31t-35 -113
q0 -16 1 -32t3 -32q12 -98 52.5 -179.5t92.5 -81.5v1zM506 1024l73 -65q-4 -8 -8.5 -14t-9.5 -11q-27 -33 -52 -40.5t-35 -7.5q-4 0 -8.5 0.5t-8.5 0.5q-13 2 -25.5 5.5t-24.5 8.5l-32.5 9.5t-30.5 4.5t-28 -6t-24 -23l-71 66q8 12 16 21.5t16 17.5q19 19 38.5 25.5
t35.5 6.5q7 0 19 -3.5l26 -7.5q2 0 4 -0.5t4 -1.5q4 -1 8.5 -2.5t9.5 -2.5q1 -1 2.5 -1.5t2.5 -0.5l23.5 -7.5t20.5 -3.5q19 0 35.5 9t23.5 22v1z" />
    <glyph glyph-name="fi" unicode="&#x152;" horiz-adv-x="1120" 
d="M1043 817l50 -184h-334v-121h304l-50 -184h-254v-144h356l-50 -184h-565q-8 -4 -18.5 -7t-23.5 -6q-13 -2 -27.5 -3.5t-30.5 -1.5q-145 0 -232.5 114t-119.5 252q-10 41 -15 82t-5 79q0 133 78.5 229t293.5 96q50 0 86 -5t64 -13l493 1v0zM549 500q0 81 -35 112t-114 31
t-114 -31t-35 -113q0 -16 1 -32t3 -32q12 -98 52.5 -179.5t92.5 -81.5t92.5 81.5t52.5 179.5q2 16 3 32t1 32v1z" />
    <glyph glyph-name="fl" unicode="&#x153;" horiz-adv-x="943" 
d="M268 618h86q1 -1 1.5 -1h1.5q12 0 35 -1t48 -9q16 -4 31.5 -12t28.5 -21q16 18 37.5 26.5t45.5 12.5q19 3 38 3.5t34 0.5h2.5h2.5l40 1q99 -1 146.5 -28t64.5 -59q12 -24 14 -45t2 -32v-2v-2q0 -93 -61 -156.5t-135 -107.5q-6 -3 -11.5 -6.5t-11.5 -6.5q38 -8 64 -9.5
t50 -1.5l76 1l-48 -163h-116q-30 0 -69.5 7t-81.5 31q-17 11 -35 25t-35 33q-37 -52 -86.5 -82.5t-116.5 -31.5q-121 0 -195 107t-90 235q-2 16 -3 32t-1 32v0.5v0.5q0 11 3 43t20 68q20 44 71 80.5t153 36.5v1zM310 156q7 -1 16 4.5t18 15.5q22 25 40.5 76t18.5 119
q0 44 -24.5 63.5t-68.5 19.5t-68.5 -19.5t-24.5 -63.5q0 -68 18.5 -119t40.5 -76q9 -10 18 -15.5t16 -5.5v1zM731 424q0 16 -12 22t-27 7q-5 1 -10 1h-10q-45 0 -69 -22.5t-24 -67.5q0 -6 0.5 -12t1.5 -12q1 -12 4 -24t7 -24l27.5 15t33.5 21q23 16 43.5 34.5t29.5 38.5
q2 6 3.5 11.5t1.5 10.5v1z" />
    <glyph glyph-name="daggerdbl" horiz-adv-x="500" 
d="M500 429v-158h-500v158h500v0z" />
    <glyph glyph-name="periodcentered" unicode="&#x2014;" horiz-adv-x="1000" 
d="M1000 429v-158h-1000v158h1000v0z" />
    <glyph glyph-name="quotedblbase" unicode="&#x201c;" horiz-adv-x="660" 
d="M147 540l-82 277h187l82 -277h-187v0zM408 540l-82 277h187l82 -277h-187v0z" />
    <glyph glyph-name="perthousand" unicode="&#x201d;" horiz-adv-x="660" 
d="M334 817l-82 -277h-187l82 277h187v0zM595 817l-82 -277h-187l82 277h187v0z" />
    <glyph glyph-name="Acircumflex" unicode="&#x2018;" 
d="M133 540l-82 277h187l82 -277h-187v0z" />
    <glyph glyph-name="Ecircumflex" unicode="&#x2019;" 
d="M299 817l-82 -277h-187l82 277h187v0z" />
    <glyph glyph-name="Aacute" unicode="&#xf7;" 
 />
    <glyph glyph-name="Edieresis" unicode="&#x25ca;" 
 />
    <glyph glyph-name="Egrave" unicode="&#xff;" horiz-adv-x="560" 
d="M588 604l-288 -812h-206l94 260l-216 552h228l87 -286h2l87 286h212v0zM247 817v-135h-133v135h133v0zM445 817v-135h-133v135h133v0z" />
    <glyph glyph-name="Iacute" unicode="&#x178;" horiz-adv-x="620" 
d="M657 817l-240 -492v-209v-15.5v-14.5q1 -22 3.5 -44t9.5 -42l-194 -124q-21 42 -27 87.5t-6 91.5v270l-240 492h243l104 -244l104 244h243v0zM277 1030v-135h-133v135h133v0zM475 1030v-135h-133v135h133v0z" />
    <glyph glyph-name="Icircumflex" unicode="&#x2215;" horiz-adv-x="500" 
 />
    <glyph glyph-name="Idieresis" unicode="&#xa4;" horiz-adv-x="500" 
 />
    <glyph glyph-name="Igrave" unicode="&#x2039;" horiz-adv-x="250" 
d="M234 522l-92 -172l86 -192l-106 -48l-112 240l121 227l103 -55v0z" />
    <glyph glyph-name="Oacute" unicode="&#x203a;" horiz-adv-x="250" 
d="M16 522l103 55l121 -227l-112 -240l-106 48l86 192l-92 172v0z" />
    <glyph glyph-name="Ocircumflex" unicode="&#xf001;" horiz-adv-x="620" 
d="M67 446h-42v158h42q-1 7 -1 15.5v16.5q0 81 41.5 130.5t144.5 49.5l194 1l48 -163h-163q-3 -1 -6 -1h-6q-26 1 -43.5 -4.5t-16.5 -37.5v-3.5v-4.5l307 1v-604h-192v446h-115v-446h-192v446v0z" />
    <glyph glyph-name="Ograve" unicode="&#xf002;" horiz-adv-x="620" 
d="M67 446h-42v158h42q-1 7 -1 15.5v16.5q0 81 41.5 130.5t144.5 49.5l314 1v-817h-192v654h-43q-3 -1 -6 -1h-6q-26 1 -43.5 -4.5t-16.5 -37.5v-3.5v-4.5l91 1l-48 -158h-43v-446h-192v446v0z" />
    <glyph glyph-name="Uacute" unicode="&#x2021;" horiz-adv-x="500" 
 />
    <glyph glyph-name="Ucircumflex" unicode="&#x2219;" horiz-adv-x="300" 
d="M240 443v-184h-180v184h180v0z" />
    <glyph glyph-name="Ugrave" unicode="&#x201a;" 
 />
    <glyph glyph-name="dotlessi" unicode="&#x201e;" horiz-adv-x="660" 
d="M334 184l-82 -277h-187l82 277h187v0zM595 184l-82 -277h-187l82 277h187v0z" />
    <glyph glyph-name="circumflex" unicode="&#x2030;" horiz-adv-x="500" 
 />
    <glyph glyph-name="tilde" unicode="&#xc2;" horiz-adv-x="760" 
d="M692 608v-608h-214v259h-234q1 -70 24 -135.5t58 -123.5l-174 -115q-59 89 -93 193t-34 212q0 12 0.5 24.5t1.5 24.5q7 95 42 185t103 158q86 86 186 110t215 24l105 1l50 -184h-168q-121 -1 -179 -38.5t-85 -82.5q-10 -18 -17.5 -36.5l-13.5 -33.5l213 1v165h214v0z
M480 1030l96 -154h-136l-37 61l-36 -61h-133l95 154h151v0z" />
    <glyph glyph-name="macron" unicode="&#xca;" horiz-adv-x="640" 
d="M563 817l50 -184h-329v-121h299l-50 -184h-249v-144h351l-50 -184h-515v817h493v0zM395 1030l96 -154h-136l-37 61l-36 -61h-133l95 154h151v0z" />
    <glyph glyph-name="breve" unicode="&#xc1;" horiz-adv-x="760" 
d="M692 608v-608h-214v259h-234q1 -70 24 -135.5t58 -123.5l-174 -115q-59 89 -93 193t-34 212q0 12 0.5 24.5t1.5 24.5q7 95 42 185t103 158q86 86 186 110t215 24l105 1l50 -184h-168q-121 -1 -179 -38.5t-85 -82.5q-10 -18 -17.5 -36.5l-13.5 -33.5l213 1v165h214v0z
M563 1030l-75 -160h-140l66 160h149v0z" />
    <glyph glyph-name="dotaccent" unicode="&#xcb;" horiz-adv-x="640" 
d="M563 817l50 -184h-329v-121h299l-50 -184h-249v-144h351l-50 -184h-515v817h493v0zM287 1030v-135h-133v135h133v0zM485 1030v-135h-133v135h133v0z" />
    <glyph glyph-name="ring" unicode="&#xc8;" horiz-adv-x="640" 
d="M563 817l50 -184h-329v-121h299l-50 -184h-249v-144h351l-50 -184h-515v817h493v0zM212 1030h148l67 -160h-140l-75 160v0z" />
    <glyph glyph-name="cedilla" unicode="&#xcd;" horiz-adv-x="360" 
d="M287 817v-817h-214v817h214v0zM357 1030l-75 -160h-140l66 160h149v0z" />
    <glyph glyph-name="hungarumlaut" unicode="&#xce;" horiz-adv-x="360" 
d="M287 817v-817h-214v817h214v0zM255 1030l96 -154h-136l-37 61l-36 -61h-133l95 154h151v0z" />
    <glyph glyph-name="ogonek" unicode="&#xcf;" horiz-adv-x="360" 
d="M287 817v-817h-214v817h214v0zM147 1030v-135h-133v135h133v0zM345 1030v-135h-133v135h133v0z" />
    <glyph glyph-name="caron" unicode="&#xcc;" horiz-adv-x="360" 
d="M287 817v-817h-214v817h214v0zM72 1030h148l67 -160h-140l-75 160v0z" />
    <glyph glyph-name="Lslash" unicode="&#xd3;" horiz-adv-x="800" 
d="M400 -18q-145 0 -232.5 114t-119.5 252q-10 41 -15 82t-5 79q0 133 78.5 229t293.5 96t293.5 -96t78.5 -229q0 -38 -5 -79t-15 -82q-32 -138 -119.5 -252t-232.5 -114v0zM400 175q52 -1 92.5 80.5t52.5 179.5q2 16 3 32t1 32q0 82 -35 113t-114 31t-114 -31t-35 -113
q0 -16 1 -32t3 -32q12 -98 52.5 -179.5t92.5 -81.5v1zM577 1030l-75 -160h-140l66 160h149v0z" />
    <glyph glyph-name="lslash" unicode="&#xd4;" horiz-adv-x="800" 
d="M400 -18q-145 0 -232.5 114t-119.5 252q-10 41 -15 82t-5 79q0 133 78.5 229t293.5 96t293.5 -96t78.5 -229q0 -38 -5 -79t-15 -82q-32 -138 -119.5 -252t-232.5 -114v0zM400 175q52 -1 92.5 80.5t52.5 179.5q2 16 3 32t1 32q0 82 -35 113t-114 31t-114 -31t-35 -113
q0 -16 1 -32t3 -32q12 -98 52.5 -179.5t92.5 -81.5v1zM475 1030l96 -154h-136l-37 61l-36 -61h-133l95 154h151v0z" />
    <glyph glyph-name="Scaron" unicode="&#xf000;" 
 />
    <glyph glyph-name="scaron" unicode="&#xd2;" 
 />
    <glyph glyph-name="Eth" unicode="&#xda;" horiz-adv-x="760" 
d="M697 817v-817h-347q-179 0 -251.5 96.5t-72.5 238.5q0 128 42.5 248t99.5 233l231 1l-30.5 -66t-35.5 -80q-21 -48 -40.5 -101.5t-32.5 -108.5q-7 -31 -11 -62t-4 -61q0 -71 27 -103t59 -43q21 -7 40.5 -8t31.5 -1l80 1v633h214v0zM557 1030l-75 -160h-140l66 160h149v0z
" />
    <glyph glyph-name="eth" unicode="&#xdb;" horiz-adv-x="760" 
d="M697 817v-817h-347q-179 0 -251.5 96.5t-72.5 238.5q0 128 42.5 248t99.5 233l231 1l-30.5 -66t-35.5 -80q-21 -48 -40.5 -101.5t-32.5 -108.5q-7 -31 -11 -62t-4 -61q0 -71 27 -103t59 -43q21 -7 40.5 -8t31.5 -1l80 1v633h214v0zM467 1030l96 -154h-136l-37 61l-36 -61
h-133l95 154h151v0z" />
    <glyph glyph-name="Thorn" unicode="&#xd9;" horiz-adv-x="760" 
d="M697 817v-817h-347q-179 0 -251.5 96.5t-72.5 238.5q0 128 42.5 248t99.5 233l231 1l-30.5 -66t-35.5 -80q-21 -48 -40.5 -101.5t-32.5 -108.5q-7 -31 -11 -62t-4 -61q0 -71 27 -103t59 -43q21 -7 40.5 -8t31.5 -1l80 1v633h214v0zM272 1030h148l67 -160h-140l-75 160v0z
" />
    <glyph glyph-name="thorn" unicode="&#x131;" horiz-adv-x="300" 
d="M246 604v-604h-192v604h192v0z" />
    <glyph glyph-name="onehalf" unicode="&#x2dc;" horiz-adv-x="500" 
d="M325 817l96 -154h-136l-37 61l-36 -61h-133l95 154h151v0z" />
    <glyph glyph-name="arrowright" unicode="&#x2c6;" horiz-adv-x="520" 
d="M366 811l73 -65q-4 -8 -8.5 -14t-9.5 -11q-27 -33 -52 -40.5t-35 -7.5q-4 0 -8.5 0.5t-8.5 0.5q-13 2 -25.5 5.5t-24.5 8.5l-32.5 9.5t-30.5 4.5t-28 -6t-24 -23l-71 66q8 12 16 21.5t16 17.5q19 19 38.5 25.5t35.5 6.5q7 0 19 -3.5l26 -7.5q2 0 4 -0.5t4 -1.5
q4 -1 8.5 -2.5t9.5 -2.5q1 -1 2.5 -1.5t2.5 -0.5l23.5 -7.5t20.5 -3.5q19 0 35.5 9t23.5 22v1z" />
    <glyph glyph-name="house" unicode="&#x2c9;" horiz-adv-x="400" 
d="M361 817v-158h-322v158h322v0z" />
    <glyph glyph-name="endash" unicode="&#x2d8;" horiz-adv-x="400" 
d="M361 835v-128q-40 -46 -80 -66t-81 -20q-20 0 -40 5t-40 15q-21 10 -41 26.5t-40 38.5v129q20 -18 40 -29.5t41 -19.5q20 -7 40 -10.5t40 -3.5q41 0 81 14t80 48v1z" />
    <glyph glyph-name="sfthyphen" unicode="&#x2d9;" horiz-adv-x="400" 
d="M266 817v-135h-133v135h133v0z" />
    <glyph glyph-name="filledbox" unicode="&#x2da;" horiz-adv-x="380" 
d="M219 624q-46 -1 -78.5 16t-32.5 67q0 10 1.5 20.5t4.5 21.5q10 39 37 72t68 33t68 -33t37 -72q3 -11 4.5 -21.5t1.5 -20.5q0 -50 -32.5 -67t-78.5 -17v1zM171 719q0 -23 14.5 -30.5t33.5 -7.5q20 0 34 7.5t14 29.5q0 6 -1 12.5t-3 13.5q-4 16 -15 30t-29 14t-29 -14
t-15 -30q-2 -7 -3 -13.5t-1 -12.5v1z" />
    <glyph glyph-name="bullet" unicode="&#xb8;" horiz-adv-x="400" 
d="M295 97v-107h23q18 0 25 -9t7 -23v-109v-4v-3q-2 -19 -11.5 -34.5t-27.5 -15.5h-113v85h67v57h-19q-12 0 -22 7t-10 24v132h81v0z" />
    <glyph glyph-name="uni02BA" unicode="&#x2ba;" horiz-adv-x="550" 
d="M290 817l-75 -160h-149l75 160h149v0zM525 817l-75 -160h-149l75 160h149v0z" />
    <glyph glyph-name="glyph223" unicode="&#x2db;" horiz-adv-x="400" 
d="M188 0h103q-29 -42 -43.5 -67.5t-14.5 -38.5q0 -6 4 -9.5t11 -4.5h3.5h2.5q7 0 16 1.5t21 4.5v-94h-94h-2.5h-2.5q-20 3 -36.5 22.5t-16.5 48.5q0 14 7.5 45t41.5 92v0z" />
    <glyph glyph-name="glyph224" unicode="&#x2c7;" horiz-adv-x="400" 
d="M371 817l-96 -154h-151l-95 154h133l36 -61l37 61h136v0z" />
    <glyph glyph-name="glyph225" unicode="&#x141;" horiz-adv-x="540" 
d="M420 504l-136 -47v-273h281l-50 -184h-445v383l-114 -39v130l114 39v304h214v-230l136 47v-130v0z" />
    <glyph glyph-name="glyph226" unicode="&#x142;" horiz-adv-x="300" 
d="M246 817v-213l79 27v-119l-79 -27v-485h-192v419l-79 -27v118l79 27v280h192v0z" />
    <glyph glyph-name="glyph227" unicode="&#x160;" horiz-adv-x="560" 
d="M476 817l50 -184h-180q-4 -1 -9 -1h-11h-7h-7q-17 -1 -31 -6.5t-14 -20.5q0 -14 8 -25.5t18 -21.5q2 -3 4.5 -5.5l4.5 -4.5l149 -164q38 -43 69.5 -89t31.5 -107q0 -15 -2.5 -31.5t-8.5 -34.5q-16 -46 -63.5 -84t-145.5 -38h-249l-50 184h194q4 -1 9 -1h11h7h7
q17 1 31 6.5t14 20.5q0 14 -8 25.5t-18 21.5q-2 3 -4.5 5.5l-4.5 4.5l-145 165q-37 42 -68.5 88t-31.5 107q0 15 2.5 31.5t8.5 34.5q16 46 63.5 84.5t145.5 38.5l230 1v0zM451 1030l-96 -154h-151l-95 154h133l36 -61l37 61h136v0z" />
    <glyph glyph-name="glyph228" unicode="&#x161;" horiz-adv-x="440" 
d="M347 604l48 -158h-86q-31 -1 -43 -5.5t-12 -18.5q0 -6 3 -11.5t7 -10.5q2 -3 3.5 -4.5t2.5 -3.5l85 -106q24 -31 41 -65t17 -74q0 -58 -40.5 -102.5t-110.5 -44.5h-195l-48 163h106q3 -1 7 -1.5t8 -0.5t8 -0.5t8 -0.5h2.5h2.5q12 0 21 3t9 13q0 4 -2 9l-4 10l-4.5 6.5
l-4.5 6.5q-4 4 -7 8t-5 7l-81 106q-24 30 -41.5 62.5t-17.5 72.5q0 11 3.5 27t12.5 33q15 30 49.5 54.5t96.5 24.5l161 1v0zM391 817l-96 -154h-151l-95 154h133l36 -61l37 61h136v0z" />
    <glyph glyph-name="Zcaron" unicode="&#x17d;" 
 />
    <glyph glyph-name="zcaron" unicode="&#x17e;" 
 />
    <glyph glyph-name="brokenbar" unicode="&#xa6;" 
 />
    <glyph glyph-name="glyph232" unicode="&#xd0;" horiz-adv-x="780" 
d="M247 0h-174v373h-87l27 100h60v135h214v-135h120l-27 -100h-93v-189q113 6 181 93t70 191v4.5v4.5q0 71 -27 103t-59 43q-21 7 -40.5 8t-31.5 1l-347 1l50 184h347q183 -1 255 -99t72 -222q0 -231 -153 -363.5t-357 -132.5v0z" />
    <glyph glyph-name="glyph233" unicode="&#xf0;" horiz-adv-x="640" 
d="M436 792l163 43v-93l-106 -28q62 -100 84 -180.5t22 -145.5q0 -16 -1 -32t-3 -32q-16 -128 -90 -235t-195 -107t-195 107t-90 235q-2 16 -3 32t-1 32v0.5v0.5q0 11 2.5 41t17.5 64q19 41 65 75.5t138 34.5h6h6q3 -1 6 -1h6l82 1q-4 13 -13 28.5l-20 33.5l-179 -46v92
l129 32l-33.5 38.5t-27.5 28.5q-2 1 -3 2.5t-3 2.5l213 1l23 -25v0zM310 156q7 -1 16 4.5t18 15.5q22 25 40.5 76t18.5 119q0 40 -24.5 54.5t-68.5 14.5t-68.5 -14.5t-24.5 -54.5q0 -68 18.5 -119t40.5 -76q9 -10 18 -15.5t16 -5.5v1z" />
    <glyph glyph-name="Yacute" unicode="&#xdd;" 
 />
    <glyph glyph-name="yacute" unicode="&#xfd;" 
 />
    <glyph glyph-name="glyph236" unicode="&#xde;" horiz-adv-x="700" 
d="M287 91v-91h-214v817h214v-505q15 4 33.5 13.5t37.5 21.5q40 25 73 60.5t33 72.5q0 32 -18.5 49t-40.5 25q-9 3 -18.5 4.5t-17.5 1.5l-57 1v184h73q152 -1 217.5 -63.5t77.5 -137.5l2 -21.5t1 -21.5q0 -51 -22 -107t-75 -113q-47 -49 -120 -97.5t-179 -93.5v1z" />
    <glyph glyph-name="glyph237" unicode="&#xfe;" horiz-adv-x="620" 
d="M56 817h192v-213h100q145 -1 198.5 -72.5t53.5 -160.5q0 -127 -86.5 -237.5t-265.5 -147.5v-195h-192v1026v0zM248 441v-278q68 8 110.5 63.5t45.5 120.5v5.5v4.5q0 40 -17.5 57t-37.5 22q-11 3 -21.5 3.5t-18.5 0.5l-61 1v0z" />
    <glyph glyph-name="minus" unicode="&#x2212;" 
 />
    <glyph glyph-name="multiply" unicode="&#xd7;" 
 />
    <glyph glyph-name="uni00B9" unicode="&#xb9;" 
 />
    <glyph glyph-name="uni00B2" unicode="&#xb2;" 
 />
    <glyph glyph-name="uni00B3" unicode="&#xb3;" 
 />
    <glyph glyph-name="glyph243" unicode="&#xbd;" horiz-adv-x="500" 
 />
    <glyph glyph-name="onequarter" unicode="&#xbc;" 
 />
    <glyph glyph-name="threequarters" unicode="&#xbe;" 
 />
    <glyph glyph-name="franc" unicode="&#x20a3;" 
 />
    <glyph glyph-name="Gbreve" unicode="&#x11e;" 
 />
    <glyph glyph-name="gbreve" unicode="&#x11f;" 
 />
    <glyph glyph-name="Idotaccent" unicode="&#x130;" 
 />
    <glyph glyph-name="Scedilla" unicode="&#x15e;" 
 />
    <glyph glyph-name="scedilla" unicode="&#x15f;" 
 />
    <glyph glyph-name="Cacute" unicode="&#x106;" 
 />
    <glyph glyph-name="cacute" unicode="&#x107;" 
 />
    <glyph glyph-name="Ccaron" unicode="&#x10c;" 
 />
    <glyph glyph-name="ccaron" unicode="&#x10d;" 
 />
    <glyph glyph-name="dcroat" unicode="&#x111;" 
 />
    <glyph glyph-name="glyph257" unicode="&#x2192;" horiz-adv-x="500" 
 />
    <glyph glyph-name="glyph258" unicode="&#x2302;" 
 />
    <glyph glyph-name="glyph259" unicode="&#x2013;" horiz-adv-x="500" 
d="M500 429v-158h-500v158h500v0z" />
    <glyph glyph-name="uni00AD" unicode="&#xad;" horiz-adv-x="500" 
 />
    <glyph glyph-name="glyph261" unicode="&#x25a0;" horiz-adv-x="500" 
 />
    <glyph glyph-name="glyph262" unicode="&#x2022;" horiz-adv-x="480" 
d="M444 604v-398h-408v398h408v0z" />
    <glyph glyph-name="glyph263" unicode="&#xaf;" 
 />
    <glyph glyph-name="glyph264" unicode="&#xb0;" 
 />
    <glyph glyph-name="glyph265" unicode="&#xb7;" 
 />
    <glyph glyph-name="underscoredbl" unicode="&#x2017;" 
 />
    <glyph glyph-name="exclamdbl" unicode="&#x203c;" 
 />
    <glyph glyph-name="uni207F" unicode="&#x207f;" 
 />
    <glyph glyph-name="peseta" unicode="&#x20a7;" 
 />
    <glyph glyph-name="Gamma" unicode="&#x393;" 
 />
    <glyph glyph-name="Theta" unicode="&#x398;" 
 />
    <glyph glyph-name="Phi" unicode="&#x3a6;" 
 />
    <glyph glyph-name="alpha" unicode="&#x3b1;" 
 />
    <glyph glyph-name="delta" unicode="&#x3b4;" 
 />
    <glyph glyph-name="epsilon" unicode="&#x3b5;" 
 />
    <glyph glyph-name="sigma" unicode="&#x3c3;" 
 />
    <glyph glyph-name="tau" unicode="&#x3c4;" 
 />
    <glyph glyph-name="phi" unicode="&#x3c6;" 
 />
    <glyph glyph-name="arrowleft" unicode="&#x2190;" 
 />
    <glyph glyph-name="arrowup" unicode="&#x2191;" 
 />
    <glyph glyph-name="arrowdown" unicode="&#x2193;" 
 />
    <glyph glyph-name="arrowboth" unicode="&#x2194;" 
 />
    <glyph glyph-name="arrowupdn" unicode="&#x2195;" 
 />
    <glyph glyph-name="arrowupdnbse" unicode="&#x21a8;" 
 />
    <glyph glyph-name="orthogonal" unicode="&#x221f;" 
 />
    <glyph glyph-name="intersection" unicode="&#x2229;" 
 />
    <glyph glyph-name="equivalence" unicode="&#x2261;" 
 />
    <glyph glyph-name="revlogicalnot" unicode="&#x2310;" 
 />
    <glyph glyph-name="integraltp" unicode="&#x2320;" 
 />
    <glyph glyph-name="integralbt" unicode="&#x2321;" 
 />
    <glyph glyph-name="filledrect" unicode="&#x25ac;" 
 />
    <glyph glyph-name="circle" unicode="&#x25cb;" 
 />
    <glyph glyph-name="triagup" unicode="&#x25b2;" 
 />
    <glyph glyph-name="triagrt" unicode="&#x25ba;" 
 />
    <glyph glyph-name="triagdn" unicode="&#x25bc;" 
 />
    <glyph glyph-name="triaglf" unicode="&#x25c4;" 
 />
    <glyph glyph-name="invbullet" unicode="&#x25d8;" 
 />
    <glyph glyph-name="invcircle" unicode="&#x25d9;" 
 />
    <glyph glyph-name="Rcaron" unicode="&#x158;" 
 />
    <glyph glyph-name="upblock" unicode="&#x2580;" 
 />
    <glyph glyph-name="dnblock" unicode="&#x2584;" 
 />
    <glyph glyph-name="block" unicode="&#x2588;" 
 />
    <glyph glyph-name="lfblock" unicode="&#x258c;" 
 />
    <glyph glyph-name="rtblock" unicode="&#x2590;" 
 />
    <glyph glyph-name="ltshade" unicode="&#x2591;" 
 />
    <glyph glyph-name="shade" unicode="&#x2592;" 
 />
    <glyph glyph-name="dkshade" unicode="&#x2593;" 
 />
    <glyph glyph-name="smileface" unicode="&#x263a;" 
 />
    <glyph glyph-name="invsmileface" unicode="&#x263b;" 
 />
    <glyph glyph-name="sun" unicode="&#x263c;" 
 />
    <glyph glyph-name="female" unicode="&#x2640;" 
 />
    <glyph glyph-name="male" unicode="&#x2642;" 
 />
    <glyph glyph-name="spade" unicode="&#x2660;" 
 />
    <glyph glyph-name="club" unicode="&#x2663;" 
 />
    <glyph glyph-name="heart" unicode="&#x2665;" 
 />
    <glyph glyph-name="diamond" unicode="&#x2666;" 
 />
    <glyph glyph-name="musicalnote" unicode="&#x266a;" 
 />
    <glyph glyph-name="musicalnotedbl" unicode="&#x266b;" 
 />
    <glyph glyph-name="Abreve" unicode="&#x102;" 
 />
    <glyph glyph-name="abreve" unicode="&#x103;" 
 />
    <glyph glyph-name="Aogonek" unicode="&#x104;" 
 />
    <glyph glyph-name="aogonek" unicode="&#x105;" 
 />
    <glyph glyph-name="Dcaron" unicode="&#x10e;" 
 />
    <glyph glyph-name="dcaron" unicode="&#x10f;" 
 />
    <glyph glyph-name="Dcroat" unicode="&#x110;" 
 />
    <glyph glyph-name="Eogonek" unicode="&#x118;" 
 />
    <glyph glyph-name="eogonek" unicode="&#x119;" 
 />
    <glyph glyph-name="Ecaron" unicode="&#x11a;" 
 />
    <glyph glyph-name="ecaron" unicode="&#x11b;" 
 />
    <glyph glyph-name="Lacute" unicode="&#x139;" 
 />
    <glyph glyph-name="lacute" unicode="&#x13a;" 
 />
    <glyph glyph-name="Lcaron" unicode="&#x13d;" 
 />
    <glyph glyph-name="lcaron" unicode="&#x13e;" 
 />
    <glyph glyph-name="Nacute" unicode="&#x143;" 
 />
    <glyph glyph-name="nacute" unicode="&#x144;" 
 />
    <glyph glyph-name="Ncaron" unicode="&#x147;" 
 />
    <glyph glyph-name="ncaron" unicode="&#x148;" 
 />
    <glyph glyph-name="Ohungarumlaut" unicode="&#x150;" 
 />
    <glyph glyph-name="ohungarumlaut" unicode="&#x151;" 
 />
    <glyph glyph-name="Racute" unicode="&#x154;" 
 />
    <glyph glyph-name="racute" unicode="&#x155;" 
 />
    <glyph glyph-name="rcaron" unicode="&#x159;" 
 />
    <glyph glyph-name="Sacute" unicode="&#x15a;" 
 />
    <glyph glyph-name="sacute" unicode="&#x15b;" 
 />
    <glyph glyph-name="Tcommaaccent" unicode="&#x162;" 
 />
    <glyph glyph-name="tcommaaccent" unicode="&#x163;" 
 />
    <glyph glyph-name="Tcaron" unicode="&#x164;" 
 />
    <glyph glyph-name="tcaron" unicode="&#x165;" 
 />
    <glyph glyph-name="Uring" unicode="&#x16e;" 
 />
    <glyph glyph-name="uring" unicode="&#x16f;" 
 />
    <glyph glyph-name="uhungarumlaut" unicode="&#x171;" 
 />
    <glyph glyph-name="Uhungarumlaut" unicode="&#x170;" 
 />
    <glyph glyph-name="Zacute" unicode="&#x179;" 
 />
    <glyph glyph-name="zacute" unicode="&#x17a;" 
 />
    <glyph glyph-name="Zdotaccent" unicode="&#x17b;" 
 />
    <glyph glyph-name="zdotaccent" unicode="&#x17c;" 
 />
    <glyph glyph-name="Ldot" unicode="&#x13f;" 
 />
    <glyph glyph-name="ldot" unicode="&#x140;" 
 />
    <glyph glyph-name="SF100000" unicode="&#x2500;" 
 />
    <glyph glyph-name="SF110000" unicode="&#x2502;" 
 />
    <glyph glyph-name="SF010000" unicode="&#x250c;" 
 />
    <glyph glyph-name="SF030000" unicode="&#x2510;" 
 />
    <glyph glyph-name="SF020000" unicode="&#x2514;" 
 />
    <glyph glyph-name="SF040000" unicode="&#x2518;" 
 />
    <glyph glyph-name="SF080000" unicode="&#x251c;" 
 />
    <glyph glyph-name="SF090000" unicode="&#x2524;" 
 />
    <glyph glyph-name="SF060000" unicode="&#x252c;" 
 />
    <glyph glyph-name="SF070000" unicode="&#x2534;" 
 />
    <glyph glyph-name="SF050000" unicode="&#x253c;" 
 />
    <glyph glyph-name="SF430000" unicode="&#x2550;" 
 />
    <glyph glyph-name="SF240000" unicode="&#x2551;" 
 />
    <glyph glyph-name="SF510000" unicode="&#x2552;" 
 />
    <glyph glyph-name="SF520000" unicode="&#x2553;" 
 />
    <glyph glyph-name="SF390000" unicode="&#x2554;" 
 />
    <glyph glyph-name="SF220000" unicode="&#x2555;" 
 />
    <glyph glyph-name="SF210000" unicode="&#x2556;" 
 />
    <glyph glyph-name="SF250000" unicode="&#x2557;" 
 />
    <glyph glyph-name="SF500000" unicode="&#x2558;" 
 />
    <glyph glyph-name="SF490000" unicode="&#x2559;" 
 />
    <glyph glyph-name="SF380000" unicode="&#x255a;" 
 />
    <glyph glyph-name="SF280000" unicode="&#x255b;" 
 />
    <glyph glyph-name="SF270000" unicode="&#x255c;" 
 />
    <glyph glyph-name="SF260000" unicode="&#x255d;" 
 />
    <glyph glyph-name="SF360000" unicode="&#x255e;" 
 />
    <glyph glyph-name="SF370000" unicode="&#x255f;" 
 />
    <glyph glyph-name="SF420000" unicode="&#x2560;" 
 />
    <glyph glyph-name="SF190000" unicode="&#x2561;" 
 />
    <glyph glyph-name="SF200000" unicode="&#x2562;" 
 />
    <glyph glyph-name="SF230000" unicode="&#x2563;" 
 />
    <glyph glyph-name="SF470000" unicode="&#x2564;" 
 />
    <glyph glyph-name="SF480000" unicode="&#x2565;" 
 />
    <glyph glyph-name="SF410000" unicode="&#x2566;" 
 />
    <glyph glyph-name="SF450000" unicode="&#x2567;" 
 />
    <glyph glyph-name="SF460000" unicode="&#x2568;" 
 />
    <glyph glyph-name="SF400000" unicode="&#x2569;" 
 />
    <glyph glyph-name="SF540000" unicode="&#x256a;" 
 />
    <glyph glyph-name="SF530000" unicode="&#x256b;" 
 />
    <glyph glyph-name="SF440000" unicode="&#x256c;" 
 />
    </font>
</defs>
</svg>
